<svg width="215" height="58" viewBox="0 0 215 58" fill="none" xmlns="http://www.w3.org/2000/svg">
<rect width="215" height="58" rx="5" fill="#D0A144"/>
<path d="M41.2637 24.0059H44.374C45.7913 24.0059 46.819 24.2087 47.457 24.6143C48.0996 25.0153 48.4209 25.6556 48.4209 26.5352C48.4209 27.1322 48.2796 27.6221 47.9971 28.0049C47.7191 28.3877 47.3477 28.6178 46.8828 28.6953V28.7637C47.5163 28.9049 47.972 29.1693 48.25 29.5566C48.5326 29.944 48.6738 30.459 48.6738 31.1016C48.6738 32.013 48.3434 32.724 47.6826 33.2344C47.0264 33.7448 46.1331 34 45.0029 34H41.2637V24.0059ZM43.3828 27.9639H44.6133C45.1875 27.9639 45.6022 27.875 45.8574 27.6973C46.1172 27.5195 46.2471 27.2256 46.2471 26.8154C46.2471 26.4326 46.1058 26.1592 45.8232 25.9951C45.5452 25.8265 45.1032 25.7422 44.4971 25.7422H43.3828V27.9639ZM43.3828 29.6455V32.25H44.7637C45.347 32.25 45.7777 32.1383 46.0557 31.915C46.3337 31.6917 46.4727 31.3499 46.4727 30.8896C46.4727 30.0602 45.8802 29.6455 44.6953 29.6455H43.3828ZM52.367 30.165C52.367 30.9215 52.49 31.4935 52.7361 31.8809C52.9868 32.2682 53.3924 32.4619 53.9529 32.4619C54.5089 32.4619 54.9077 32.2705 55.1492 31.8877C55.3953 31.5003 55.5184 30.9261 55.5184 30.165C55.5184 29.4085 55.3953 28.8411 55.1492 28.4629C54.9031 28.0846 54.4998 27.8955 53.9393 27.8955C53.3833 27.8955 52.9822 28.0846 52.7361 28.4629C52.49 28.8366 52.367 29.404 52.367 30.165ZM57.6512 30.165C57.6512 31.4092 57.323 32.3822 56.6668 33.084C56.0105 33.7858 55.0968 34.1367 53.9256 34.1367C53.1919 34.1367 52.5447 33.9772 51.9842 33.6582C51.4236 33.3346 50.993 32.8721 50.6922 32.2705C50.3914 31.6689 50.241 30.9671 50.241 30.165C50.241 28.9163 50.5669 27.9456 51.2186 27.2529C51.8702 26.5602 52.7863 26.2139 53.9666 26.2139C54.7003 26.2139 55.3475 26.3734 55.908 26.6924C56.4686 27.0114 56.8992 27.4694 57.2 28.0664C57.5008 28.6634 57.6512 29.363 57.6512 30.165ZM61.235 30.165C61.235 30.9215 61.358 31.4935 61.6041 31.8809C61.8548 32.2682 62.2604 32.4619 62.8209 32.4619C63.3769 32.4619 63.7757 32.2705 64.0172 31.8877C64.2633 31.5003 64.3863 30.9261 64.3863 30.165C64.3863 29.4085 64.2633 28.8411 64.0172 28.4629C63.7711 28.0846 63.3678 27.8955 62.8072 27.8955C62.2512 27.8955 61.8502 28.0846 61.6041 28.4629C61.358 28.8366 61.235 29.404 61.235 30.165ZM66.5191 30.165C66.5191 31.4092 66.191 32.3822 65.5348 33.084C64.8785 33.7858 63.9648 34.1367 62.7936 34.1367C62.0598 34.1367 61.4127 33.9772 60.8521 33.6582C60.2916 33.3346 59.8609 32.8721 59.5602 32.2705C59.2594 31.6689 59.109 30.9671 59.109 30.165C59.109 28.9163 59.4348 27.9456 60.0865 27.2529C60.7382 26.5602 61.6542 26.2139 62.8346 26.2139C63.5683 26.2139 64.2154 26.3734 64.776 26.6924C65.3365 27.0114 65.7672 27.4694 66.068 28.0664C66.3687 28.6634 66.5191 29.363 66.5191 30.165ZM70.4447 29.8438L71.3539 28.6816L73.4936 26.3574H75.8451L72.81 29.6729L76.0297 34H73.6234L71.4223 30.9033L70.5268 31.6211V34H68.4418V23.3633H70.5268V28.1074L70.4174 29.8438H70.4447ZM87.4424 34L86.7178 31.6211H83.0742L82.3496 34H80.0664L83.5938 23.9648H86.1846L89.7256 34H87.4424ZM86.2119 29.8438C85.542 27.6882 85.1637 26.4691 85.0771 26.1865C84.9951 25.904 84.9359 25.6807 84.8994 25.5166C84.749 26.0999 84.3184 27.5423 83.6074 29.8438H86.2119ZM95.2234 34.1367C94.3257 34.1367 93.6216 33.8109 93.1111 33.1592H93.0018C93.0747 33.7972 93.1111 34.1663 93.1111 34.2666V37.3633H91.0262V26.3574H92.7215L93.0154 27.3486H93.1111C93.5988 26.5921 94.3211 26.2139 95.2781 26.2139C96.1805 26.2139 96.8868 26.5625 97.3973 27.2598C97.9077 27.957 98.1629 28.9255 98.1629 30.165C98.1629 30.9808 98.0421 31.6895 97.8006 32.291C97.5636 32.8926 97.2241 33.3506 96.782 33.665C96.34 33.9795 95.8204 34.1367 95.2234 34.1367ZM94.6082 27.8818C94.0932 27.8818 93.7173 28.0413 93.4803 28.3604C93.2433 28.6748 93.1202 29.1966 93.1111 29.9258V30.1514C93.1111 30.9717 93.2319 31.5596 93.4734 31.915C93.7195 32.2705 94.1069 32.4482 94.6355 32.4482C95.5698 32.4482 96.0369 31.6781 96.0369 30.1377C96.0369 29.3857 95.9207 28.8229 95.6883 28.4492C95.4604 28.071 95.1004 27.8818 94.6082 27.8818ZM104.283 34.1367C103.385 34.1367 102.681 33.8109 102.171 33.1592H102.061C102.134 33.7972 102.171 34.1663 102.171 34.2666V37.3633H100.086V26.3574H101.781L102.075 27.3486H102.171C102.658 26.5921 103.38 26.2139 104.338 26.2139C105.24 26.2139 105.946 26.5625 106.457 27.2598C106.967 27.957 107.222 28.9255 107.222 30.165C107.222 30.9808 107.101 31.6895 106.86 32.291C106.623 32.8926 106.283 33.3506 105.841 33.665C105.399 33.9795 104.88 34.1367 104.283 34.1367ZM103.668 27.8818C103.153 27.8818 102.777 28.0413 102.54 28.3604C102.303 28.6748 102.18 29.1966 102.171 29.9258V30.1514C102.171 30.9717 102.291 31.5596 102.533 31.915C102.779 32.2705 103.166 32.4482 103.695 32.4482C104.629 32.4482 105.096 31.6781 105.096 30.1377C105.096 29.3857 104.98 28.8229 104.748 28.4492C104.52 28.071 104.16 27.8818 103.668 27.8818ZM110.806 30.165C110.806 30.9215 110.929 31.4935 111.175 31.8809C111.426 32.2682 111.831 32.4619 112.392 32.4619C112.948 32.4619 113.347 32.2705 113.588 31.8877C113.834 31.5003 113.957 30.9261 113.957 30.165C113.957 29.4085 113.834 28.8411 113.588 28.4629C113.342 28.0846 112.939 27.8955 112.378 27.8955C111.822 27.8955 111.421 28.0846 111.175 28.4629C110.929 28.8366 110.806 29.404 110.806 30.165ZM116.09 30.165C116.09 31.4092 115.762 32.3822 115.106 33.084C114.45 33.7858 113.536 34.1367 112.365 34.1367C111.631 34.1367 110.984 33.9772 110.423 33.6582C109.863 33.3346 109.432 32.8721 109.131 32.2705C108.83 31.6689 108.68 30.9671 108.68 30.165C108.68 28.9163 109.006 27.9456 109.658 27.2529C110.309 26.5602 111.225 26.2139 112.406 26.2139C113.139 26.2139 113.787 26.3734 114.347 26.6924C114.908 27.0114 115.338 27.4694 115.639 28.0664C115.94 28.6634 116.09 29.363 116.09 30.165ZM117.924 24.3818C117.924 23.7028 118.302 23.3633 119.059 23.3633C119.815 23.3633 120.194 23.7028 120.194 24.3818C120.194 24.7054 120.098 24.9583 119.906 25.1406C119.72 25.3184 119.437 25.4072 119.059 25.4072C118.302 25.4072 117.924 25.0654 117.924 24.3818ZM120.098 34H118.013V26.3574H120.098V34ZM129.547 34H127.462V29.5361C127.462 28.9847 127.364 28.5723 127.168 28.2988C126.972 28.0208 126.66 27.8818 126.231 27.8818C125.648 27.8818 125.227 28.0778 124.967 28.4697C124.707 28.8571 124.577 29.502 124.577 30.4043V34H122.492V26.3574H124.085L124.365 27.335H124.481C124.714 26.9658 125.033 26.6878 125.438 26.501C125.849 26.3096 126.313 26.2139 126.833 26.2139C127.722 26.2139 128.396 26.4554 128.856 26.9385C129.317 27.417 129.547 28.1097 129.547 29.0166V34ZM135.113 32.4756C135.478 32.4756 135.915 32.3958 136.426 32.2363V33.7881C135.906 34.0205 135.268 34.1367 134.512 34.1367C133.678 34.1367 133.069 33.9271 132.686 33.5078C132.308 33.084 132.119 32.4505 132.119 31.6074V27.9229H131.121V27.041L132.269 26.3438L132.871 24.7305H134.204V26.3574H136.344V27.9229H134.204V31.6074C134.204 31.9036 134.286 32.1224 134.45 32.2637C134.619 32.4049 134.84 32.4756 135.113 32.4756ZM145.02 34H142.935V29.5361C142.935 28.9847 142.842 28.5723 142.655 28.2988C142.473 28.0208 142.183 27.8818 141.787 27.8818C141.254 27.8818 140.866 28.0778 140.625 28.4697C140.383 28.8617 140.262 29.5065 140.262 30.4043V34H138.177V26.3574H139.77L140.05 27.335H140.167C140.372 26.984 140.668 26.7106 141.055 26.5146C141.443 26.3141 141.887 26.2139 142.388 26.2139C143.532 26.2139 144.307 26.5876 144.713 27.335H144.897C145.102 26.9795 145.403 26.7038 145.799 26.5078C146.2 26.3118 146.652 26.2139 147.153 26.2139C148.019 26.2139 148.673 26.4372 149.115 26.8838C149.561 27.3258 149.785 28.0368 149.785 29.0166V34H147.693V29.5361C147.693 28.9847 147.6 28.5723 147.413 28.2988C147.23 28.0208 146.941 27.8818 146.545 27.8818C146.034 27.8818 145.651 28.0641 145.396 28.4287C145.145 28.7933 145.02 29.3721 145.02 30.165V34ZM155.296 27.6973C154.854 27.6973 154.508 27.8385 154.257 28.1211C154.007 28.3991 153.863 28.7956 153.827 29.3105H156.752C156.743 28.7956 156.609 28.3991 156.349 28.1211C156.089 27.8385 155.738 27.6973 155.296 27.6973ZM155.59 34.1367C154.36 34.1367 153.398 33.7972 152.705 33.1182C152.013 32.4391 151.666 31.4775 151.666 30.2334C151.666 28.9528 151.985 27.9639 152.623 27.2666C153.266 26.5648 154.152 26.2139 155.283 26.2139C156.363 26.2139 157.204 26.5215 157.805 27.1367C158.407 27.752 158.707 28.6019 158.707 29.6865V30.6982H153.779C153.801 31.2907 153.977 31.7533 154.305 32.0859C154.633 32.4186 155.093 32.585 155.686 32.585C156.146 32.585 156.581 32.5371 156.992 32.4414C157.402 32.3457 157.83 32.193 158.277 31.9834V33.5967C157.912 33.779 157.523 33.9134 157.108 34C156.693 34.0911 156.187 34.1367 155.59 34.1367ZM167.657 34H165.572V29.5361C165.572 28.9847 165.474 28.5723 165.279 28.2988C165.083 28.0208 164.77 27.8818 164.342 27.8818C163.759 27.8818 163.337 28.0778 163.077 28.4697C162.818 28.8571 162.688 29.502 162.688 30.4043V34H160.603V26.3574H162.196L162.476 27.335H162.592C162.824 26.9658 163.143 26.6878 163.549 26.501C163.959 26.3096 164.424 26.2139 164.944 26.2139C165.832 26.2139 166.507 26.4554 166.967 26.9385C167.427 27.417 167.657 28.1097 167.657 29.0166V34ZM173.224 32.4756C173.588 32.4756 174.026 32.3958 174.536 32.2363V33.7881C174.017 34.0205 173.379 34.1367 172.622 34.1367C171.788 34.1367 171.18 33.9271 170.797 33.5078C170.419 33.084 170.229 32.4505 170.229 31.6074V27.9229H169.231V27.041L170.38 26.3438L170.981 24.7305H172.314V26.3574H174.454V27.9229H172.314V31.6074C172.314 31.9036 172.396 32.1224 172.561 32.2637C172.729 32.4049 172.95 32.4756 173.224 32.4756Z" fill="white"/>
</svg>
