<svg width="156" height="48" viewBox="0 0 156 48" fill="none" xmlns="http://www.w3.org/2000/svg">
<path d="M38.183 29V19.0059H40.3021V27.25H44.3559V29H38.183ZM49.3 22.6973C48.8579 22.6973 48.5116 22.8385 48.2609 23.1211C48.0103 23.3991 47.8667 23.7956 47.8303 24.3105H50.7561C50.7469 23.7956 50.6125 23.3991 50.3527 23.1211C50.093 22.8385 49.7421 22.6973 49.3 22.6973ZM49.5939 29.1367C48.3635 29.1367 47.4019 28.7972 46.7092 28.1182C46.0165 27.4391 45.6701 26.4775 45.6701 25.2334C45.6701 23.9528 45.9891 22.9639 46.6271 22.2666C47.2697 21.5648 48.1561 21.2139 49.2863 21.2139C50.3664 21.2139 51.2072 21.5215 51.8088 22.1367C52.4103 22.752 52.7111 23.6019 52.7111 24.6865V25.6982H47.7824C47.8052 26.2907 47.9807 26.7533 48.3088 27.0859C48.6369 27.4186 49.0972 27.585 49.6896 27.585C50.1499 27.585 50.5852 27.5371 50.9953 27.4414C51.4055 27.3457 51.8339 27.193 52.2805 26.9834V28.5967C51.9159 28.779 51.5262 28.9134 51.1115 29C50.6968 29.0911 50.1909 29.1367 49.5939 29.1367ZM59.46 29L59.0566 27.9609H59.002C58.651 28.403 58.2887 28.7106 57.915 28.8838C57.5459 29.0524 57.0628 29.1367 56.4658 29.1367C55.7321 29.1367 55.1533 28.9271 54.7295 28.5078C54.3102 28.0885 54.1006 27.4915 54.1006 26.7168C54.1006 25.9056 54.3831 25.3086 54.9482 24.9258C55.5179 24.5384 56.3747 24.3242 57.5186 24.2832L58.8447 24.2422V23.9072C58.8447 23.1325 58.4482 22.7451 57.6553 22.7451C57.0446 22.7451 56.3268 22.9297 55.502 23.2988L54.8115 21.8906C55.6911 21.4303 56.6663 21.2002 57.7373 21.2002C58.7627 21.2002 59.5488 21.4235 60.0957 21.8701C60.6426 22.3167 60.916 22.9958 60.916 23.9072V29H59.46ZM58.8447 25.459L58.0381 25.4863C57.432 25.5046 56.9808 25.6139 56.6846 25.8145C56.3883 26.015 56.2402 26.3203 56.2402 26.7305C56.2402 27.3184 56.5775 27.6123 57.252 27.6123C57.735 27.6123 58.1201 27.4733 58.4072 27.1953C58.6989 26.9173 58.8447 26.5482 58.8447 26.0879V25.459ZM67.535 21.2139C67.8175 21.2139 68.0522 21.2344 68.2391 21.2754L68.0818 23.2305C67.9132 23.1849 67.7081 23.1621 67.4666 23.1621C66.8012 23.1621 66.2817 23.333 65.908 23.6748C65.5389 24.0166 65.3543 24.4951 65.3543 25.1104V29H63.2693V21.3574H64.8484L65.1561 22.6426H65.2586C65.4956 22.2142 65.8146 21.8701 66.2156 21.6104C66.6212 21.346 67.061 21.2139 67.535 21.2139ZM76.8814 29H74.7965V24.5361C74.7965 23.9847 74.6985 23.5723 74.5025 23.2988C74.3066 23.0208 73.9944 22.8818 73.566 22.8818C72.9827 22.8818 72.5611 23.0778 72.3014 23.4697C72.0416 23.8571 71.9117 24.502 71.9117 25.4043V29H69.8268V21.3574H71.4195L71.6998 22.335H71.816C72.0484 21.9658 72.3674 21.6878 72.773 21.501C73.1832 21.3096 73.648 21.2139 74.1676 21.2139C75.0562 21.2139 75.7307 21.4554 76.191 21.9385C76.6513 22.417 76.8814 23.1097 76.8814 24.0166V29ZM87.4602 29L85.0539 21.1592H84.9924C85.079 22.7542 85.1223 23.8184 85.1223 24.3516V29H83.2287V19.0059H86.1135L88.4787 26.6484H88.5197L91.0285 19.0059H93.9133V29H91.9377V24.2695C91.9377 24.0462 91.94 23.7887 91.9445 23.4971C91.9536 23.2054 91.9855 22.4307 92.0402 21.1729H91.9787L89.4016 29H87.4602ZM98.1328 25.165C98.1328 25.9215 98.2559 26.4935 98.502 26.8809C98.7526 27.2682 99.1582 27.4619 99.7188 27.4619C100.275 27.4619 100.674 27.2705 100.915 26.8877C101.161 26.5003 101.284 25.9261 101.284 25.165C101.284 24.4085 101.161 23.8411 100.915 23.4629C100.669 23.0846 100.266 22.8955 99.7051 22.8955C99.1491 22.8955 98.748 23.0846 98.502 23.4629C98.2559 23.8366 98.1328 24.404 98.1328 25.165ZM103.417 25.165C103.417 26.4092 103.089 27.3822 102.433 28.084C101.776 28.7858 100.863 29.1367 99.6914 29.1367C98.9577 29.1367 98.3105 28.9772 97.75 28.6582C97.1895 28.3346 96.7588 27.8721 96.458 27.2705C96.1572 26.6689 96.0068 25.9671 96.0068 25.165C96.0068 23.9163 96.3327 22.9456 96.9844 22.2529C97.6361 21.5602 98.5521 21.2139 99.7324 21.2139C100.466 21.2139 101.113 21.3734 101.674 21.6924C102.234 22.0114 102.665 22.4694 102.966 23.0664C103.267 23.6634 103.417 24.363 103.417 25.165ZM109.605 21.2139C109.888 21.2139 110.123 21.2344 110.309 21.2754L110.152 23.2305C109.984 23.1849 109.778 23.1621 109.537 23.1621C108.872 23.1621 108.352 23.333 107.978 23.6748C107.609 24.0166 107.425 24.4951 107.425 25.1104V29H105.34V21.3574H106.919L107.226 22.6426H107.329C107.566 22.2142 107.885 21.8701 108.286 21.6104C108.692 21.346 109.131 21.2139 109.605 21.2139ZM115.062 22.6973C114.62 22.6973 114.274 22.8385 114.023 23.1211C113.772 23.3991 113.629 23.7956 113.592 24.3105H116.518C116.509 23.7956 116.375 23.3991 116.115 23.1211C115.855 22.8385 115.504 22.6973 115.062 22.6973ZM115.356 29.1367C114.126 29.1367 113.164 28.7972 112.471 28.1182C111.779 27.4391 111.432 26.4775 111.432 25.2334C111.432 23.9528 111.751 22.9639 112.389 22.2666C113.032 21.5648 113.918 21.2139 115.048 21.2139C116.129 21.2139 116.969 21.5215 117.571 22.1367C118.172 22.752 118.473 23.6019 118.473 24.6865V25.6982H113.545C113.567 26.2907 113.743 26.7533 114.071 27.0859C114.399 27.4186 114.859 27.585 115.452 27.585C115.912 27.585 116.347 27.5371 116.757 27.4414C117.168 27.3457 117.596 27.193 118.043 26.9834V28.5967C117.678 28.779 117.288 28.9134 116.874 29C116.459 29.0911 115.953 29.1367 115.356 29.1367Z" fill="white"/>
<rect x="1" y="0.5" width="154" height="47" rx="23.5" stroke="white"/>
</svg>
