<svg width="158" height="58" viewBox="0 0 158 58" fill="none" xmlns="http://www.w3.org/2000/svg">
<rect width="158" height="58" rx="5" fill="#D0A144"/>
<path d="M45.6977 25.626C44.9001 25.626 44.2826 25.9268 43.8451 26.5283C43.4076 27.1253 43.1889 27.9593 43.1889 29.0303C43.1889 31.2588 44.0251 32.373 45.6977 32.373C46.3995 32.373 47.2494 32.1976 48.2475 31.8467V33.624C47.4271 33.9658 46.5111 34.1367 45.4994 34.1367C44.0456 34.1367 42.9337 33.6969 42.1635 32.8174C41.3933 31.9333 41.0082 30.6663 41.0082 29.0166C41.0082 27.9775 41.1973 27.0684 41.5756 26.2891C41.9538 25.5052 42.4962 24.9059 43.2025 24.4912C43.9135 24.0719 44.7452 23.8623 45.6977 23.8623C46.6684 23.8623 47.6436 24.097 48.6234 24.5664L47.9398 26.2891C47.5661 26.1113 47.1902 25.9564 46.8119 25.8242C46.4337 25.6921 46.0622 25.626 45.6977 25.626ZM52.0773 30.165C52.0773 30.9215 52.2004 31.4935 52.4465 31.8809C52.6971 32.2682 53.1027 32.4619 53.6633 32.4619C54.2193 32.4619 54.618 32.2705 54.8596 31.8877C55.1057 31.5003 55.2287 30.9261 55.2287 30.165C55.2287 29.4085 55.1057 28.8411 54.8596 28.4629C54.6135 28.0846 54.2102 27.8955 53.6496 27.8955C53.0936 27.8955 52.6926 28.0846 52.4465 28.4629C52.2004 28.8366 52.0773 29.404 52.0773 30.165ZM57.3615 30.165C57.3615 31.4092 57.0334 32.3822 56.3771 33.084C55.7209 33.7858 54.8072 34.1367 53.6359 34.1367C52.9022 34.1367 52.2551 33.9772 51.6945 33.6582C51.134 33.3346 50.7033 32.8721 50.4025 32.2705C50.1018 31.6689 49.9514 30.9671 49.9514 30.165C49.9514 28.9163 50.2772 27.9456 50.9289 27.2529C51.5806 26.5602 52.4966 26.2139 53.677 26.2139C54.4107 26.2139 55.0578 26.3734 55.6184 26.6924C56.1789 27.0114 56.6096 27.4694 56.9103 28.0664C57.2111 28.6634 57.3615 29.363 57.3615 30.165ZM66.3389 34H64.2539V29.5361C64.2539 28.9847 64.1559 28.5723 63.96 28.2988C63.764 28.0208 63.4518 27.8818 63.0234 27.8818C62.4401 27.8818 62.0186 28.0778 61.7588 28.4697C61.499 28.8571 61.3691 29.502 61.3691 30.4043V34H59.2842V26.3574H60.877L61.1572 27.335H61.2734C61.5059 26.9658 61.8249 26.6878 62.2305 26.501C62.6406 26.3096 63.1055 26.2139 63.625 26.2139C64.5137 26.2139 65.1881 26.4554 65.6484 26.9385C66.1087 27.417 66.3389 28.1097 66.3389 29.0166V34ZM71.9051 32.4756C72.2697 32.4756 72.7072 32.3958 73.2176 32.2363V33.7881C72.698 34.0205 72.06 34.1367 71.3035 34.1367C70.4695 34.1367 69.8611 33.9271 69.4783 33.5078C69.1001 33.084 68.9109 32.4505 68.9109 31.6074V27.9229H67.9129V27.041L69.0613 26.3438L69.6629 24.7305H70.9959V26.3574H73.1355V27.9229H70.9959V31.6074C70.9959 31.9036 71.0779 32.1224 71.242 32.2637C71.4106 32.4049 71.6316 32.4756 71.9051 32.4756ZM79.8228 34L79.4195 32.9609H79.3648C79.0139 33.403 78.6516 33.7106 78.2779 33.8838C77.9088 34.0524 77.4257 34.1367 76.8287 34.1367C76.095 34.1367 75.5162 33.9271 75.0924 33.5078C74.6731 33.0885 74.4635 32.4915 74.4635 31.7168C74.4635 30.9056 74.746 30.3086 75.3111 29.9258C75.8808 29.5384 76.7376 29.3242 77.8814 29.2832L79.2076 29.2422V28.9072C79.2076 28.1325 78.8111 27.7451 78.0182 27.7451C77.4075 27.7451 76.6897 27.9297 75.8648 28.2988L75.1744 26.8906C76.054 26.4303 77.0292 26.2002 78.1002 26.2002C79.1256 26.2002 79.9117 26.4235 80.4586 26.8701C81.0055 27.3167 81.2789 27.9958 81.2789 28.9072V34H79.8228ZM79.2076 30.459L78.401 30.4863C77.7949 30.5046 77.3437 30.6139 77.0475 30.8145C76.7512 31.015 76.6031 31.3203 76.6031 31.7305C76.6031 32.3184 76.9404 32.6123 77.6148 32.6123C78.0979 32.6123 78.483 32.4733 78.7701 32.1953C79.0618 31.9173 79.2076 31.5482 79.2076 31.0879V30.459ZM86.7357 34.1367C84.3568 34.1367 83.1674 32.8311 83.1674 30.2197C83.1674 28.9209 83.4909 27.9297 84.1381 27.2461C84.7852 26.5579 85.7126 26.2139 86.9203 26.2139C87.8044 26.2139 88.5974 26.387 89.2992 26.7334L88.684 28.3467C88.3559 28.2145 88.0505 28.1074 87.768 28.0254C87.4854 27.9388 87.2029 27.8955 86.9203 27.8955C85.8357 27.8955 85.2934 28.6657 85.2934 30.2061C85.2934 31.7008 85.8357 32.4482 86.9203 32.4482C87.3214 32.4482 87.6928 32.3958 88.0346 32.291C88.3764 32.1816 88.7182 32.013 89.06 31.7852V33.5693C88.7227 33.7835 88.3809 33.9316 88.0346 34.0137C87.6928 34.0957 87.2598 34.1367 86.7357 34.1367ZM94.257 32.4756C94.6216 32.4756 95.0591 32.3958 95.5695 32.2363V33.7881C95.05 34.0205 94.412 34.1367 93.6555 34.1367C92.8215 34.1367 92.2131 33.9271 91.8303 33.5078C91.452 33.084 91.2629 32.4505 91.2629 31.6074V27.9229H90.2648V27.041L91.4133 26.3438L92.0148 24.7305H93.3479V26.3574H95.4875V27.9229H93.3479V31.6074C93.3479 31.9036 93.4299 32.1224 93.5939 32.2637C93.7626 32.4049 93.9836 32.4756 94.257 32.4756ZM109.457 24.0059V30.4727C109.457 31.2109 109.29 31.8581 108.958 32.4141C108.63 32.9701 108.153 33.3962 107.529 33.6924C106.905 33.9886 106.166 34.1367 105.314 34.1367C104.029 34.1367 103.031 33.8086 102.32 33.1523C101.609 32.4915 101.254 31.5892 101.254 30.4453V24.0059H103.366V30.124C103.366 30.8942 103.521 31.4593 103.831 31.8193C104.141 32.1794 104.653 32.3594 105.369 32.3594C106.062 32.3594 106.563 32.1794 106.873 31.8193C107.187 31.4548 107.345 30.8851 107.345 30.1104V24.0059H109.457ZM117.272 31.7305C117.272 32.5143 116.999 33.1113 116.452 33.5215C115.909 33.9316 115.096 34.1367 114.011 34.1367C113.455 34.1367 112.981 34.098 112.589 34.0205C112.198 33.9476 111.831 33.8382 111.489 33.6924V31.9697C111.876 32.152 112.311 32.3047 112.795 32.4277C113.282 32.5508 113.711 32.6123 114.08 32.6123C114.836 32.6123 115.214 32.3936 115.214 31.9561C115.214 31.792 115.164 31.6598 115.064 31.5596C114.964 31.4548 114.791 31.3385 114.545 31.2109C114.298 31.0788 113.97 30.9261 113.56 30.7529C112.972 30.5068 112.539 30.279 112.261 30.0693C111.988 29.8597 111.787 29.6204 111.66 29.3516C111.537 29.0781 111.475 28.7432 111.475 28.3467C111.475 27.6676 111.737 27.1436 112.261 26.7744C112.79 26.4007 113.537 26.2139 114.504 26.2139C115.424 26.2139 116.32 26.4144 117.19 26.8154L116.561 28.3193C116.178 28.1553 115.821 28.0208 115.488 27.916C115.155 27.8112 114.816 27.7588 114.469 27.7588C113.854 27.7588 113.546 27.9251 113.546 28.2578C113.546 28.4447 113.644 28.6064 113.84 28.7432C114.041 28.8799 114.476 29.0827 115.146 29.3516C115.743 29.5931 116.181 29.8187 116.459 30.0283C116.737 30.238 116.942 30.4795 117.074 30.7529C117.206 31.0264 117.272 31.3522 117.272 31.7305Z" fill="white"/>
</svg>
