<svg width="183" height="48" viewBox="0 0 183 48" fill="none" xmlns="http://www.w3.org/2000/svg">
<rect x="0.5" width="182" height="48" rx="24" fill="#D0A144"/>
<path d="M41.758 23.3877H45.7229V28.5693C45.0803 28.779 44.4742 28.9248 43.9045 29.0068C43.3394 29.0934 42.7606 29.1367 42.1682 29.1367C40.6597 29.1367 39.5067 28.6947 38.7092 27.8105C37.9162 26.9219 37.5197 25.6481 37.5197 23.9893C37.5197 22.376 37.98 21.1182 38.9006 20.2158C39.8257 19.3135 41.1063 18.8623 42.7424 18.8623C43.7678 18.8623 44.7567 19.0674 45.7092 19.4775L45.0051 21.1729C44.2759 20.8083 43.5171 20.626 42.7287 20.626C41.8127 20.626 41.079 20.9336 40.5275 21.5488C39.9761 22.1641 39.7004 22.9912 39.7004 24.0303C39.7004 25.1149 39.9214 25.9443 40.3635 26.5186C40.8101 27.0882 41.4572 27.373 42.3049 27.373C42.7469 27.373 43.1958 27.3275 43.6516 27.2363V25.1514H41.758V23.3877ZM51.3096 22.6973C50.8675 22.6973 50.5212 22.8385 50.2705 23.1211C50.0199 23.3991 49.8763 23.7956 49.8398 24.3105H52.7656C52.7565 23.7956 52.6221 23.3991 52.3623 23.1211C52.1025 22.8385 51.7516 22.6973 51.3096 22.6973ZM51.6035 29.1367C50.373 29.1367 49.4115 28.7972 48.7187 28.1182C48.026 27.4391 47.6797 26.4775 47.6797 25.2334C47.6797 23.9528 47.9987 22.9639 48.6367 22.2666C49.2793 21.5648 50.1657 21.2139 51.2959 21.2139C52.376 21.2139 53.2168 21.5215 53.8184 22.1367C54.4199 22.752 54.7207 23.6019 54.7207 24.6865V25.6982H49.792C49.8148 26.2907 49.9902 26.7533 50.3184 27.0859C50.6465 27.4186 51.1068 27.585 51.6992 27.585C52.1595 27.585 52.5947 27.5371 53.0049 27.4414C53.415 27.3457 53.8434 27.193 54.29 26.9834V28.5967C53.9255 28.779 53.5358 28.9134 53.1211 29C52.7064 29.0911 52.2005 29.1367 51.6035 29.1367ZM59.8357 27.4756C60.2003 27.4756 60.6378 27.3958 61.1482 27.2363V28.7881C60.6287 29.0205 59.9907 29.1367 59.2342 29.1367C58.4002 29.1367 57.7918 28.9271 57.409 28.5078C57.0307 28.084 56.8416 27.4505 56.8416 26.6074V22.9229H55.8436V22.041L56.992 21.3438L57.5936 19.7305H58.9266V21.3574H61.0662V22.9229H58.9266V26.6074C58.9266 26.9036 59.0086 27.1224 59.1727 27.2637C59.3413 27.4049 59.5623 27.4756 59.8357 27.4756ZM75.9721 23.9893C75.9721 25.165 75.7624 26.1517 75.3432 26.9492C74.9284 27.7422 74.3178 28.3232 73.5111 28.6924L75.9174 31.3789H73.2035L71.3715 29.1367H71.2143C69.683 29.1367 68.5072 28.6924 67.6869 27.8037C66.8666 26.915 66.4564 25.639 66.4564 23.9756C66.4564 22.3122 66.8666 21.043 67.6869 20.168C68.5118 19.2884 69.6921 18.8486 71.2279 18.8486C72.7637 18.8486 73.9372 19.2907 74.7484 20.1748C75.5642 21.0589 75.9721 22.3304 75.9721 23.9893ZM68.6781 23.9893C68.6781 25.1058 68.89 25.9466 69.3139 26.5117C69.7377 27.0768 70.3712 27.3594 71.2143 27.3594C72.905 27.3594 73.7504 26.236 73.7504 23.9893C73.7504 21.738 72.9096 20.6123 71.2279 20.6123C70.3848 20.6123 69.7491 20.8971 69.3207 21.4668C68.8923 22.0319 68.6781 22.8727 68.6781 23.9893ZM83.4934 29L83.2131 28.0225H83.1037C82.8804 28.3779 82.5637 28.6536 82.1535 28.8496C81.7434 29.041 81.2762 29.1367 80.7521 29.1367C79.8544 29.1367 79.1776 28.8975 78.7219 28.4189C78.2661 27.9359 78.0383 27.2432 78.0383 26.3408V21.3574H80.1232V25.8213C80.1232 26.3727 80.2212 26.7874 80.4172 27.0654C80.6132 27.3389 80.9253 27.4756 81.3537 27.4756C81.937 27.4756 82.3586 27.2819 82.6184 26.8945C82.8781 26.5026 83.008 25.8555 83.008 24.9531V21.3574H85.093V29H83.4934ZM89.1416 25.165C89.1416 25.9215 89.2646 26.4935 89.5107 26.8809C89.7614 27.2682 90.167 27.4619 90.7275 27.4619C91.2835 27.4619 91.6823 27.2705 91.9238 26.8877C92.1699 26.5003 92.293 25.9261 92.293 25.165C92.293 24.4085 92.1699 23.8411 91.9238 23.4629C91.6777 23.0846 91.2744 22.8955 90.7139 22.8955C90.1579 22.8955 89.7568 23.0846 89.5107 23.4629C89.2646 23.8366 89.1416 24.404 89.1416 25.165ZM94.4258 25.165C94.4258 26.4092 94.0977 27.3822 93.4414 28.084C92.7852 28.7858 91.8714 29.1367 90.7002 29.1367C89.9665 29.1367 89.3193 28.9772 88.7588 28.6582C88.1982 28.3346 87.7676 27.8721 87.4668 27.2705C87.166 26.6689 87.0156 25.9671 87.0156 25.165C87.0156 23.9163 87.3415 22.9456 87.9932 22.2529C88.6449 21.5602 89.5609 21.2139 90.7412 21.2139C91.4749 21.2139 92.1221 21.3734 92.6826 21.6924C93.2432 22.0114 93.6738 22.4694 93.9746 23.0664C94.2754 23.6634 94.4258 24.363 94.4258 25.165ZM99.5682 27.4756C99.9327 27.4756 100.37 27.3958 100.881 27.2363V28.7881C100.361 29.0205 99.7231 29.1367 98.9666 29.1367C98.1326 29.1367 97.5242 28.9271 97.1414 28.5078C96.7632 28.084 96.574 27.4505 96.574 26.6074V22.9229H95.576V22.041L96.7244 21.3438L97.326 19.7305H98.659V21.3574H100.799V22.9229H98.659V26.6074C98.659 26.9036 98.741 27.1224 98.9051 27.2637C99.0737 27.4049 99.2947 27.4756 99.5682 27.4756ZM105.797 22.6973C105.355 22.6973 105.009 22.8385 104.758 23.1211C104.508 23.3991 104.364 23.7956 104.328 24.3105H107.254C107.244 23.7956 107.11 23.3991 106.85 23.1211C106.59 22.8385 106.24 22.6973 105.797 22.6973ZM106.091 29.1367C104.861 29.1367 103.899 28.7972 103.207 28.1182C102.514 27.4391 102.168 26.4775 102.168 25.2334C102.168 23.9528 102.487 22.9639 103.125 22.2666C103.767 21.5648 104.654 21.2139 105.784 21.2139C106.864 21.2139 107.705 21.5215 108.306 22.1367C108.908 22.752 109.209 23.6019 109.209 24.6865V25.6982H104.28C104.303 26.2907 104.478 26.7533 104.806 27.0859C105.134 27.4186 105.595 27.585 106.187 27.585C106.647 27.585 107.083 27.5371 107.493 27.4414C107.903 27.3457 108.331 27.193 108.778 26.9834V28.5967C108.413 28.779 108.024 28.9134 107.609 29C107.194 29.0911 106.688 29.1367 106.091 29.1367ZM123.971 29H121.278L116.93 21.4395H116.868C116.955 22.7747 116.998 23.7272 116.998 24.2969V29H115.105V19.0059H117.778L122.118 26.4912H122.166C122.098 25.1924 122.064 24.2741 122.064 23.7363V19.0059H123.971V29ZM128.19 25.165C128.19 25.9215 128.313 26.4935 128.56 26.8809C128.81 27.2682 129.216 27.4619 129.776 27.4619C130.332 27.4619 130.731 27.2705 130.973 26.8877C131.219 26.5003 131.342 25.9261 131.342 25.165C131.342 24.4085 131.219 23.8411 130.973 23.4629C130.727 23.0846 130.323 22.8955 129.763 22.8955C129.207 22.8955 128.806 23.0846 128.56 23.4629C128.313 23.8366 128.19 24.404 128.19 25.165ZM133.475 25.165C133.475 26.4092 133.146 27.3822 132.49 28.084C131.834 28.7858 130.92 29.1367 129.749 29.1367C129.015 29.1367 128.368 28.9772 127.808 28.6582C127.247 28.3346 126.816 27.8721 126.516 27.2705C126.215 26.6689 126.064 25.9671 126.064 25.165C126.064 23.9163 126.39 22.9456 127.042 22.2529C127.694 21.5602 128.61 21.2139 129.79 21.2139C130.524 21.2139 131.171 21.3734 131.731 21.6924C132.292 22.0114 132.723 22.4694 133.023 23.0664C133.324 23.6634 133.475 24.363 133.475 25.165ZM141.679 29L141.092 26.3271L140.299 22.9502H140.251L138.856 29H136.614L134.44 21.3574H136.518L137.4 24.7412C137.541 25.3473 137.685 26.1836 137.831 27.25H137.872C137.89 26.9036 137.97 26.3545 138.111 25.6025L138.221 25.0215L139.164 21.3574H141.461L142.356 25.0215C142.374 25.1217 142.402 25.2699 142.438 25.4658C142.479 25.6618 142.518 25.8714 142.554 26.0947C142.591 26.3135 142.623 26.5299 142.65 26.7441C142.682 26.9538 142.7 27.1224 142.705 27.25H142.746C142.787 26.9219 142.86 26.473 142.965 25.9033C143.069 25.3291 143.145 24.9417 143.19 24.7412L144.106 21.3574H146.15L143.949 29H141.679Z" fill="white"/>
</svg>
