<svg width="291" height="50" viewBox="0 0 291 50" fill="none" xmlns="http://www.w3.org/2000/svg">
<g clip-path="url(#clip0_964_8280)">
<rect x="1" y="0.5" width="289" height="49" rx="4.5" fill="#F9F9F9"/>
<path d="M25.7588 21.6973C25.3167 21.6973 24.9704 21.8385 24.7197 22.1211C24.4691 22.3991 24.3255 22.7956 24.2891 23.3105H27.2148C27.2057 22.7956 27.0713 22.3991 26.8115 22.1211C26.5518 21.8385 26.2008 21.6973 25.7588 21.6973ZM26.0527 28.1367C24.8223 28.1367 23.8607 27.7972 23.168 27.1182C22.4753 26.4391 22.1289 25.4775 22.1289 24.2334C22.1289 22.9528 22.4479 21.9639 23.0859 21.2666C23.7285 20.5648 24.6149 20.2139 25.7451 20.2139C26.8252 20.2139 27.666 20.5215 28.2676 21.1367C28.8691 21.752 29.1699 22.6019 29.1699 23.6865V24.6982H24.2412C24.264 25.2907 24.4395 25.7533 24.7676 26.0859C25.0957 26.4186 25.556 26.585 26.1484 26.585C26.6087 26.585 27.0439 26.5371 27.4541 26.4414C27.8643 26.3457 28.2926 26.193 28.7393 25.9834V27.5967C28.3747 27.779 27.985 27.9134 27.5703 28C27.1556 28.0911 26.6497 28.1367 26.0527 28.1367ZM32.6307 24.0967L30.1697 20.3574H32.535L34.0184 22.791L35.5154 20.3574H37.8807L35.3924 24.0967L37.9969 28H35.6248L34.0184 25.3818L32.4051 28H30.0398L32.6307 24.0967ZM44.2125 28L43.8092 26.9609H43.7545C43.4036 27.403 43.0413 27.7106 42.6676 27.8838C42.2984 28.0524 41.8154 28.1367 41.2184 28.1367C40.4846 28.1367 39.9059 27.9271 39.482 27.5078C39.0628 27.0885 38.8531 26.4915 38.8531 25.7168C38.8531 24.9056 39.1357 24.3086 39.7008 23.9258C40.2704 23.5384 41.1272 23.3242 42.2711 23.2832L43.5973 23.2422V22.9072C43.5973 22.1325 43.2008 21.7451 42.4078 21.7451C41.7971 21.7451 41.0794 21.9297 40.2545 22.2988L39.5641 20.8906C40.4436 20.4303 41.4189 20.2002 42.4898 20.2002C43.5152 20.2002 44.3014 20.4235 44.8482 20.8701C45.3951 21.3167 45.6686 21.9958 45.6686 22.9072V28H44.2125ZM43.5973 24.459L42.7906 24.4863C42.1845 24.5046 41.7333 24.6139 41.4371 24.8145C41.1409 25.015 40.9928 25.3203 40.9928 25.7305C40.9928 26.3184 41.33 26.6123 42.0045 26.6123C42.4876 26.6123 42.8727 26.4733 43.1598 26.1953C43.4514 25.9173 43.5973 25.5482 43.5973 25.0879V24.459ZM54.8646 28H52.7797V23.5361C52.7797 22.9847 52.6863 22.5723 52.4994 22.2988C52.3171 22.0208 52.0277 21.8818 51.6313 21.8818C51.098 21.8818 50.7107 22.0778 50.4691 22.4697C50.2276 22.8617 50.1068 23.5065 50.1068 24.4043V28H48.0219V20.3574H49.6146L49.8949 21.335H50.0111C50.2162 20.984 50.5124 20.7106 50.8998 20.5146C51.2872 20.3141 51.7315 20.2139 52.2328 20.2139C53.3767 20.2139 54.1514 20.5876 54.557 21.335H54.7416C54.9467 20.9795 55.2475 20.7038 55.6439 20.5078C56.045 20.3118 56.4962 20.2139 56.9975 20.2139C57.8633 20.2139 58.5173 20.4372 58.9594 20.8838C59.406 21.3258 59.6293 22.0368 59.6293 23.0166V28H57.5375V23.5361C57.5375 22.9847 57.4441 22.5723 57.2572 22.2988C57.0749 22.0208 56.7855 21.8818 56.3891 21.8818C55.8786 21.8818 55.4958 22.0641 55.2406 22.4287C54.99 22.7933 54.8646 23.3721 54.8646 24.165V28ZM66.173 28.1367C65.2753 28.1367 64.5712 27.8109 64.0607 27.1592H63.9514C64.0243 27.7972 64.0607 28.1663 64.0607 28.2666V31.3633H61.9758V20.3574H63.6711L63.965 21.3486H64.0607C64.5484 20.5921 65.2707 20.2139 66.2277 20.2139C67.1301 20.2139 67.8365 20.5625 68.3469 21.2598C68.8573 21.957 69.1125 22.9255 69.1125 24.165C69.1125 24.9808 68.9917 25.6895 68.7502 26.291C68.5132 26.8926 68.1737 27.3506 67.7316 27.665C67.2896 27.9795 66.7701 28.1367 66.173 28.1367ZM65.5578 21.8818C65.0428 21.8818 64.6669 22.0413 64.4299 22.3604C64.1929 22.6748 64.0699 23.1966 64.0607 23.9258V24.1514C64.0607 24.9717 64.1815 25.5596 64.423 25.915C64.6691 26.2705 65.0565 26.4482 65.5852 26.4482C66.5194 26.4482 66.9865 25.6781 66.9865 24.1377C66.9865 23.3857 66.8703 22.8229 66.6379 22.4492C66.41 22.071 66.05 21.8818 65.5578 21.8818ZM73.1201 28H71.0352V17.3633H73.1201V28ZM78.6795 21.6973C78.2374 21.6973 77.8911 21.8385 77.6404 22.1211C77.3898 22.3991 77.2462 22.7956 77.2098 23.3105H80.1355C80.1264 22.7956 79.992 22.3991 79.7322 22.1211C79.4725 21.8385 79.1216 21.6973 78.6795 21.6973ZM78.9734 28.1367C77.743 28.1367 76.7814 27.7972 76.0887 27.1182C75.396 26.4391 75.0496 25.4775 75.0496 24.2334C75.0496 22.9528 75.3686 21.9639 76.0066 21.2666C76.6492 20.5648 77.5356 20.2139 78.6658 20.2139C79.7459 20.2139 80.5867 20.5215 81.1883 21.1367C81.7898 21.752 82.0906 22.6019 82.0906 23.6865V24.6982H77.1619C77.1847 25.2907 77.3602 25.7533 77.6883 26.0859C78.0164 26.4186 78.4767 26.585 79.0691 26.585C79.5294 26.585 79.9646 26.5371 80.3748 26.4414C80.785 26.3457 81.2133 26.193 81.66 25.9834V27.5967C81.2954 27.779 80.9057 27.9134 80.491 28C80.0763 28.0911 79.5704 28.1367 78.9734 28.1367ZM94.7525 22.8594C94.7525 23.5156 94.6477 24.1172 94.4381 24.6641C94.2285 25.2064 93.9322 25.6325 93.5494 25.9424C93.1666 26.2523 92.7223 26.4072 92.2164 26.4072C91.8792 26.4072 91.5807 26.3275 91.3209 26.168C91.0611 26.0039 90.8743 25.7897 90.7604 25.5254H90.651C90.1588 26.1133 89.5322 26.4072 88.7711 26.4072C87.9645 26.4072 87.3287 26.1657 86.8639 25.6826C86.399 25.195 86.1666 24.5296 86.1666 23.6865C86.1666 22.7249 86.4719 21.9502 87.0826 21.3623C87.6933 20.7744 88.4908 20.4805 89.4752 20.4805C89.8671 20.4805 90.2978 20.5192 90.7672 20.5967C91.2411 20.6696 91.6308 20.7585 91.9361 20.8633L91.7789 24.2061C91.7789 24.8395 91.9521 25.1562 92.2984 25.1562C92.5901 25.1562 92.8225 24.9443 92.9957 24.5205C93.1689 24.0921 93.2555 23.5339 93.2555 22.8457C93.2555 22.112 93.1028 21.4648 92.7975 20.9043C92.4921 20.3392 92.0615 19.9085 91.5055 19.6123C90.954 19.3161 90.3229 19.168 89.6119 19.168C88.6913 19.168 87.8915 19.3571 87.2125 19.7354C86.5335 20.1136 86.0117 20.6605 85.6471 21.376C85.287 22.0869 85.107 22.9095 85.107 23.8438C85.107 25.1016 85.442 26.0677 86.1119 26.7422C86.7864 27.4121 87.7617 27.7471 89.0377 27.7471C89.5208 27.7471 90.0517 27.6947 90.6305 27.5898C91.2092 27.4805 91.7789 27.3232 92.3395 27.1182V28.4307C91.3642 28.8454 90.2818 29.0527 89.0924 29.0527C87.3606 29.0527 86.0094 28.597 85.0387 27.6855C84.0725 26.7741 83.5895 25.5072 83.5895 23.8848C83.5895 22.7591 83.8355 21.7383 84.3277 20.8223C84.8245 19.9017 85.5286 19.1816 86.44 18.6621C87.3561 18.138 88.4088 17.876 89.5982 17.876C90.6008 17.876 91.4964 18.0811 92.2848 18.4912C93.0732 18.9014 93.6816 19.4847 94.11 20.2412C94.5383 20.9977 94.7525 21.8704 94.7525 22.8594ZM87.7525 23.7139C87.7525 24.6755 88.1445 25.1562 88.9283 25.1562C89.3385 25.1562 89.6507 25.0127 89.8648 24.7256C90.079 24.4339 90.2089 23.9622 90.2545 23.3105L90.3434 21.7998C90.1109 21.7497 89.8489 21.7246 89.5572 21.7246C88.9876 21.7246 88.5432 21.9023 88.2242 22.2578C87.9098 22.6133 87.7525 23.0986 87.7525 23.7139ZM103.402 20.3574V21.417L102.205 21.7246C102.424 22.0664 102.534 22.4492 102.534 22.873C102.534 23.6934 102.246 24.3337 101.672 24.7939C101.103 25.2497 100.31 25.4775 99.2934 25.4775L98.9174 25.457L98.6098 25.4229C98.3956 25.5869 98.2885 25.7692 98.2885 25.9697C98.2885 26.2705 98.6713 26.4209 99.4369 26.4209H100.736C101.574 26.4209 102.212 26.6009 102.65 26.9609C103.092 27.321 103.313 27.8496 103.313 28.5469C103.313 29.4401 102.939 30.1328 102.192 30.625C101.449 31.1172 100.38 31.3633 98.9857 31.3633C97.9193 31.3633 97.1036 31.1764 96.5385 30.8027C95.9779 30.4336 95.6977 29.9141 95.6977 29.2441C95.6977 28.7839 95.8412 28.3988 96.1283 28.0889C96.4154 27.779 96.837 27.5579 97.393 27.4258C97.1788 27.3346 96.9919 27.1865 96.8324 26.9814C96.6729 26.7718 96.5932 26.5508 96.5932 26.3184C96.5932 26.0267 96.6775 25.7852 96.8461 25.5938C97.0147 25.3978 97.2585 25.2064 97.5775 25.0195C97.1765 24.8464 96.8575 24.5684 96.6205 24.1855C96.3881 23.8027 96.2719 23.3516 96.2719 22.832C96.2719 21.998 96.543 21.3532 97.0854 20.8975C97.6277 20.4417 98.4024 20.2139 99.4096 20.2139C99.6238 20.2139 99.8767 20.2344 100.168 20.2754C100.465 20.3118 100.654 20.3392 100.736 20.3574H103.402ZM97.5023 29.0801C97.5023 29.3672 97.6391 29.5928 97.9125 29.7568C98.1905 29.9209 98.5779 30.0029 99.0746 30.0029C99.822 30.0029 100.408 29.9004 100.831 29.6953C101.255 29.4902 101.467 29.21 101.467 28.8545C101.467 28.5674 101.342 28.3691 101.091 28.2598C100.841 28.1504 100.453 28.0957 99.9291 28.0957H98.849C98.4662 28.0957 98.1449 28.1846 97.8852 28.3623C97.6299 28.5446 97.5023 28.7839 97.5023 29.0801ZM98.2611 22.8594C98.2611 23.2741 98.3546 23.6022 98.5414 23.8438C98.7328 24.0853 99.0222 24.2061 99.4096 24.2061C99.8015 24.2061 100.089 24.0853 100.271 23.8438C100.453 23.6022 100.544 23.2741 100.544 22.8594C100.544 21.9388 100.166 21.4785 99.4096 21.4785C98.6439 21.4785 98.2611 21.9388 98.2611 22.8594ZM111.709 28H109.624V23.5361C109.624 22.9847 109.531 22.5723 109.344 22.2988C109.162 22.0208 108.872 21.8818 108.476 21.8818C107.943 21.8818 107.555 22.0778 107.314 22.4697C107.072 22.8617 106.951 23.5065 106.951 24.4043V28H104.866V20.3574H106.459L106.739 21.335H106.856C107.061 20.984 107.357 20.7106 107.744 20.5146C108.132 20.3141 108.576 20.2139 109.077 20.2139C110.221 20.2139 110.996 20.5876 111.402 21.335H111.586C111.791 20.9795 112.092 20.7038 112.488 20.5078C112.89 20.3118 113.341 20.2139 113.842 20.2139C114.708 20.2139 115.362 20.4372 115.804 20.8838C116.251 21.3258 116.474 22.0368 116.474 23.0166V28H114.382V23.5361C114.382 22.9847 114.289 22.5723 114.102 22.2988C113.919 22.0208 113.63 21.8818 113.234 21.8818C112.723 21.8818 112.34 22.0641 112.085 22.4287C111.835 22.7933 111.709 23.3721 111.709 24.165V28ZM123.674 28L123.271 26.9609H123.216C122.865 27.403 122.503 27.7106 122.129 27.8838C121.76 28.0524 121.277 28.1367 120.68 28.1367C119.946 28.1367 119.367 27.9271 118.943 27.5078C118.524 27.0885 118.314 26.4915 118.314 25.7168C118.314 24.9056 118.597 24.3086 119.162 23.9258C119.732 23.5384 120.589 23.3242 121.732 23.2832L123.059 23.2422V22.9072C123.059 22.1325 122.662 21.7451 121.869 21.7451C121.258 21.7451 120.541 21.9297 119.716 22.2988L119.025 20.8906C119.905 20.4303 120.88 20.2002 121.951 20.2002C122.977 20.2002 123.763 20.4235 124.31 20.8701C124.856 21.3167 125.13 21.9958 125.13 22.9072V28H123.674ZM123.059 24.459L122.252 24.4863C121.646 24.5046 121.195 24.6139 120.898 24.8145C120.602 25.015 120.454 25.3203 120.454 25.7305C120.454 26.3184 120.791 26.6123 121.466 26.6123C121.949 26.6123 122.334 26.4733 122.621 26.1953C122.913 25.9173 123.059 25.5482 123.059 25.0879V24.459ZM127.394 18.3818C127.394 17.7028 127.773 17.3633 128.529 17.3633C129.286 17.3633 129.664 17.7028 129.664 18.3818C129.664 18.7054 129.568 18.9583 129.377 19.1406C129.19 19.3184 128.907 19.4072 128.529 19.4072C127.773 19.4072 127.394 19.0654 127.394 18.3818ZM129.568 28H127.483V20.3574H129.568V28ZM134.047 28H131.963V17.3633H134.047V28ZM136.148 27.0225C136.148 26.6396 136.25 26.3503 136.455 26.1543C136.661 25.9583 136.959 25.8604 137.351 25.8604C137.729 25.8604 138.021 25.9606 138.226 26.1611C138.436 26.3617 138.54 26.6488 138.54 27.0225C138.54 27.3825 138.436 27.6673 138.226 27.877C138.016 28.082 137.725 28.1846 137.351 28.1846C136.968 28.1846 136.672 28.0843 136.462 27.8838C136.253 27.6787 136.148 27.3916 136.148 27.0225ZM143.738 28.1367C141.359 28.1367 140.169 26.8311 140.169 24.2197C140.169 22.9209 140.493 21.9297 141.14 21.2461C141.787 20.5579 142.714 20.2139 143.922 20.2139C144.806 20.2139 145.599 20.387 146.301 20.7334L145.686 22.3467C145.358 22.2145 145.052 22.1074 144.77 22.0254C144.487 21.9388 144.205 21.8955 143.922 21.8955C142.837 21.8955 142.295 22.6657 142.295 24.2061C142.295 25.7008 142.837 26.4482 143.922 26.4482C144.323 26.4482 144.695 26.3958 145.036 26.291C145.378 26.1816 145.72 26.013 146.062 25.7852V27.5693C145.724 27.7835 145.383 27.9316 145.036 28.0137C144.695 28.0957 144.262 28.1367 143.738 28.1367ZM149.7 24.165C149.7 24.9215 149.823 25.4935 150.069 25.8809C150.32 26.2682 150.726 26.4619 151.286 26.4619C151.842 26.4619 152.241 26.2705 152.482 25.8877C152.729 25.5003 152.852 24.9261 152.852 24.165C152.852 23.4085 152.729 22.8411 152.482 22.4629C152.236 22.0846 151.833 21.8955 151.272 21.8955C150.716 21.8955 150.315 22.0846 150.069 22.4629C149.823 22.8366 149.7 23.404 149.7 24.165ZM154.984 24.165C154.984 25.4092 154.656 26.3822 154 27.084C153.344 27.7858 152.43 28.1367 151.259 28.1367C150.525 28.1367 149.878 27.9772 149.317 27.6582C148.757 27.3346 148.326 26.8721 148.025 26.2705C147.725 25.6689 147.574 24.9671 147.574 24.165C147.574 22.9163 147.9 21.9456 148.552 21.2529C149.203 20.5602 150.119 20.2139 151.3 20.2139C152.034 20.2139 152.681 20.3734 153.241 20.6924C153.802 21.0114 154.232 21.4694 154.533 22.0664C154.834 22.6634 154.984 23.363 154.984 24.165ZM163.75 28H161.665V23.5361C161.665 22.9847 161.571 22.5723 161.385 22.2988C161.202 22.0208 160.913 21.8818 160.516 21.8818C159.983 21.8818 159.596 22.0778 159.354 22.4697C159.113 22.8617 158.992 23.5065 158.992 24.4043V28H156.907V20.3574H158.5L158.78 21.335H158.896C159.101 20.984 159.398 20.7106 159.785 20.5146C160.172 20.3141 160.617 20.2139 161.118 20.2139C162.262 20.2139 163.037 20.5876 163.442 21.335H163.627C163.832 20.9795 164.133 20.7038 164.529 20.5078C164.93 20.3118 165.381 20.2139 165.883 20.2139C166.748 20.2139 167.402 20.4372 167.845 20.8838C168.291 21.3258 168.514 22.0368 168.514 23.0166V28H166.423V23.5361C166.423 22.9847 166.329 22.5723 166.142 22.2988C165.96 22.0208 165.671 21.8818 165.274 21.8818C164.764 21.8818 164.381 22.0641 164.126 22.4287C163.875 22.7933 163.75 23.3721 163.75 24.165V28Z" fill="#BDBDBD"/>
<rect x="1" y="0.5" width="289" height="49" rx="4.5" stroke="#BDBDBD"/>
</g>
<defs>
<clipPath id="clip0_964_8280">
<rect width="290" height="50" fill="white" transform="translate(0.5)"/>
</clipPath>
</defs>
</svg>
