<svg width="598" height="140" viewBox="0 0 598 140" fill="none" xmlns="http://www.w3.org/2000/svg">
<rect x="0.5" y="0.5" width="597" height="139" rx="4.5" fill="#F9F9F9"/>
<path d="M31.4893 33L29.083 25.1592H29.0215C29.1081 26.7542 29.1514 27.8184 29.1514 28.3516V33H27.2578V23.0059H30.1426L32.5078 30.6484H32.5488L35.0576 23.0059H37.9424V33H35.9668V28.2695C35.9668 28.0462 35.9691 27.7887 35.9736 27.4971C35.9827 27.2054 36.0146 26.4307 36.0693 25.1729H36.0078L33.4307 33H31.4893ZM43.6658 26.6973C43.2238 26.6973 42.8774 26.8385 42.6268 27.1211C42.3761 27.3991 42.2326 27.7956 42.1961 28.3105H45.1219C45.1128 27.7956 44.9783 27.3991 44.7186 27.1211C44.4588 26.8385 44.1079 26.6973 43.6658 26.6973ZM43.9598 33.1367C42.7293 33.1367 41.7677 32.7972 41.075 32.1182C40.3823 31.4391 40.0359 30.4775 40.0359 29.2334C40.0359 27.9528 40.3549 26.9639 40.993 26.2666C41.6355 25.5648 42.5219 25.2139 43.6521 25.2139C44.7322 25.2139 45.573 25.5215 46.1746 26.1367C46.7762 26.752 47.077 27.6019 47.077 28.6865V29.6982H42.1482C42.171 30.2907 42.3465 30.7533 42.6746 31.0859C43.0027 31.4186 43.463 31.585 44.0555 31.585C44.5158 31.585 44.951 31.5371 45.3611 31.4414C45.7713 31.3457 46.1997 31.193 46.6463 30.9834V32.5967C46.2817 32.779 45.8921 32.9134 45.4773 33C45.0626 33.0911 44.5568 33.1367 43.9598 33.1367ZM54.3043 30.7305C54.3043 31.5143 54.0309 32.1113 53.484 32.5215C52.9417 32.9316 52.1282 33.1367 51.0436 33.1367C50.4876 33.1367 50.0136 33.098 49.6217 33.0205C49.2298 32.9476 48.8629 32.8382 48.5211 32.6924V30.9697C48.9085 31.152 49.3437 31.3047 49.8268 31.4277C50.3144 31.5508 50.7428 31.6123 51.1119 31.6123C51.8684 31.6123 52.2467 31.3936 52.2467 30.9561C52.2467 30.792 52.1965 30.6598 52.0963 30.5596C51.996 30.4548 51.8229 30.3385 51.5768 30.2109C51.3307 30.0788 51.0025 29.9261 50.5924 29.7529C50.0045 29.5068 49.5715 29.279 49.2936 29.0693C49.0201 28.8597 48.8196 28.6204 48.692 28.3516C48.5689 28.0781 48.5074 27.7432 48.5074 27.3467C48.5074 26.6676 48.7695 26.1436 49.2936 25.7744C49.8222 25.4007 50.5696 25.2139 51.5357 25.2139C52.4563 25.2139 53.3518 25.4144 54.2223 25.8154L53.5934 27.3193C53.2105 27.1553 52.8528 27.0208 52.5201 26.916C52.1874 26.8112 51.8479 26.7588 51.5016 26.7588C50.8863 26.7588 50.5787 26.9251 50.5787 27.2578C50.5787 27.4447 50.6767 27.6064 50.8727 27.7432C51.0732 27.8799 51.5084 28.0827 52.1783 28.3516C52.7753 28.5931 53.2128 28.8187 53.4908 29.0283C53.7688 29.238 53.9739 29.4795 54.1061 29.7529C54.2382 30.0264 54.3043 30.3522 54.3043 30.7305ZM61.4633 30.7305C61.4633 31.5143 61.1898 32.1113 60.643 32.5215C60.1007 32.9316 59.2872 33.1367 58.2025 33.1367C57.6465 33.1367 57.1726 33.098 56.7807 33.0205C56.3887 32.9476 56.0219 32.8382 55.6801 32.6924V30.9697C56.0674 31.152 56.5027 31.3047 56.9857 31.4277C57.4734 31.5508 57.9018 31.6123 58.2709 31.6123C59.0274 31.6123 59.4057 31.3936 59.4057 30.9561C59.4057 30.792 59.3555 30.6598 59.2553 30.5596C59.155 30.4548 58.9818 30.3385 58.7357 30.2109C58.4896 30.0788 58.1615 29.9261 57.7514 29.7529C57.1635 29.5068 56.7305 29.279 56.4525 29.0693C56.1791 28.8597 55.9786 28.6204 55.851 28.3516C55.7279 28.0781 55.6664 27.7432 55.6664 27.3467C55.6664 26.6676 55.9285 26.1436 56.4525 25.7744C56.9812 25.4007 57.7286 25.2139 58.6947 25.2139C59.6153 25.2139 60.5108 25.4144 61.3813 25.8154L60.7523 27.3193C60.3695 27.1553 60.0118 27.0208 59.6791 26.916C59.3464 26.8112 59.0069 26.7588 58.6605 26.7588C58.0453 26.7588 57.7377 26.9251 57.7377 27.2578C57.7377 27.4447 57.8357 27.6064 58.0316 27.7432C58.2322 27.8799 58.6674 28.0827 59.3373 28.3516C59.9343 28.5931 60.3718 28.8187 60.6498 29.0283C60.9278 29.238 61.1329 29.4795 61.265 29.7529C61.3972 30.0264 61.4633 30.3522 61.4633 30.7305ZM68.1437 33L67.7404 31.9609H67.6857C67.3348 32.403 66.9725 32.7106 66.5988 32.8838C66.2297 33.0524 65.7466 33.1367 65.1496 33.1367C64.4159 33.1367 63.8371 32.9271 63.4133 32.5078C62.994 32.0885 62.7844 31.4915 62.7844 30.7168C62.7844 29.9056 63.0669 29.3086 63.632 28.9258C64.2017 28.5384 65.0585 28.3242 66.2023 28.2832L67.5285 28.2422V27.9072C67.5285 27.1325 67.132 26.7451 66.3391 26.7451C65.7284 26.7451 65.0106 26.9297 64.1857 27.2988L63.4953 25.8906C64.3749 25.4303 65.3501 25.2002 66.4211 25.2002C67.4465 25.2002 68.2326 25.4235 68.7795 25.8701C69.3264 26.3167 69.5998 26.9958 69.5998 27.9072V33H68.1437ZM67.5285 29.459L66.7219 29.4863C66.1158 29.5046 65.6646 29.6139 65.3684 29.8145C65.0721 30.015 64.924 30.3203 64.924 30.7305C64.924 31.3184 65.2613 31.6123 65.9357 31.6123C66.4188 31.6123 66.8039 31.4733 67.091 31.1953C67.3827 30.9173 67.5285 30.5482 67.5285 30.0879V29.459ZM78.6045 25.3574V26.417L77.4082 26.7246C77.627 27.0664 77.7363 27.4492 77.7363 27.873C77.7363 28.6934 77.4492 29.3337 76.875 29.7939C76.3053 30.2497 75.5124 30.4775 74.4961 30.4775L74.1201 30.457L73.8125 30.4229C73.5983 30.5869 73.4912 30.7692 73.4912 30.9697C73.4912 31.2705 73.874 31.4209 74.6396 31.4209H75.9385C76.777 31.4209 77.415 31.6009 77.8525 31.9609C78.2946 32.321 78.5156 32.8496 78.5156 33.5469C78.5156 34.4401 78.1419 35.1328 77.3945 35.625C76.6517 36.1172 75.583 36.3633 74.1885 36.3633C73.1221 36.3633 72.3063 36.1764 71.7412 35.8027C71.1807 35.4336 70.9004 34.9141 70.9004 34.2441C70.9004 33.7839 71.0439 33.3988 71.3311 33.0889C71.6182 32.779 72.0397 32.5579 72.5957 32.4258C72.3815 32.3346 72.1947 32.1865 72.0352 31.9814C71.8757 31.7718 71.7959 31.5508 71.7959 31.3184C71.7959 31.0267 71.8802 30.7852 72.0488 30.5938C72.2174 30.3978 72.4613 30.2064 72.7803 30.0195C72.3792 29.8464 72.0602 29.5684 71.8232 29.1855C71.5908 28.8027 71.4746 28.3516 71.4746 27.832C71.4746 26.998 71.7458 26.3532 72.2881 25.8975C72.8304 25.4417 73.6051 25.2139 74.6123 25.2139C74.8265 25.2139 75.0794 25.2344 75.3711 25.2754C75.6673 25.3118 75.8564 25.3392 75.9385 25.3574H78.6045ZM72.7051 34.0801C72.7051 34.3672 72.8418 34.5928 73.1152 34.7568C73.3932 34.9209 73.7806 35.0029 74.2773 35.0029C75.0247 35.0029 75.6104 34.9004 76.0342 34.6953C76.458 34.4902 76.6699 34.21 76.6699 33.8545C76.6699 33.5674 76.5446 33.3691 76.2939 33.2598C76.0433 33.1504 75.6559 33.0957 75.1318 33.0957H74.0518C73.6689 33.0957 73.3477 33.1846 73.0879 33.3623C72.8327 33.5446 72.7051 33.7839 72.7051 34.0801ZM73.4639 27.8594C73.4639 28.2741 73.5573 28.6022 73.7441 28.8438C73.9355 29.0853 74.2249 29.2061 74.6123 29.2061C75.0042 29.2061 75.2913 29.0853 75.4736 28.8438C75.6559 28.6022 75.7471 28.2741 75.7471 27.8594C75.7471 26.9388 75.3688 26.4785 74.6123 26.4785C73.8467 26.4785 73.4639 26.9388 73.4639 27.8594ZM83.2342 26.6973C82.7921 26.6973 82.4458 26.8385 82.1951 27.1211C81.9445 27.3991 81.8009 27.7956 81.7645 28.3105H84.6902C84.6811 27.7956 84.5467 27.3991 84.2869 27.1211C84.0271 26.8385 83.6762 26.6973 83.2342 26.6973ZM83.5281 33.1367C82.2977 33.1367 81.3361 32.7972 80.6434 32.1182C79.9507 31.4391 79.6043 30.4775 79.6043 29.2334C79.6043 27.9528 79.9233 26.9639 80.5613 26.2666C81.2039 25.5648 82.0903 25.2139 83.2205 25.2139C84.3006 25.2139 85.1414 25.5215 85.743 26.1367C86.3445 26.752 86.6453 27.6019 86.6453 28.6865V29.6982H81.7166C81.7394 30.2907 81.9148 30.7533 82.243 31.0859C82.5711 31.4186 83.0314 31.585 83.6238 31.585C84.0841 31.585 84.5193 31.5371 84.9295 31.4414C85.3396 31.3457 85.768 31.193 86.2146 30.9834V32.5967C85.8501 32.779 85.4604 32.9134 85.0457 33C84.631 33.0911 84.1251 33.1367 83.5281 33.1367Z" fill="#BDBDBD"/>
<rect x="0.5" y="0.5" width="597" height="139" rx="4.5" stroke="#BDBDBD"/>
</svg>
