<svg width="286" height="50" viewBox="0 0 286 50" fill="none" xmlns="http://www.w3.org/2000/svg">
<g clip-path="url(#clip0_964_8276)">
<rect x="1" y="0.5" width="284" height="49" rx="4.5" fill="#F9F9F9"/>
<path d="M24.8428 28H22.7578V18.0059H28.4863V19.7422H24.8428V22.3193H28.2334V24.0488H24.8428V28ZM35.8914 28L35.6111 27.0225H35.5018C35.2785 27.3779 34.9617 27.6536 34.5516 27.8496C34.1414 28.041 33.6743 28.1367 33.1502 28.1367C32.2524 28.1367 31.5757 27.8975 31.1199 27.4189C30.6642 26.9359 30.4363 26.2432 30.4363 25.3408V20.3574H32.5213V24.8213C32.5213 25.3727 32.6193 25.7874 32.8152 26.0654C33.0112 26.3389 33.3234 26.4756 33.7518 26.4756C34.3351 26.4756 34.7566 26.2819 35.0164 25.8945C35.2762 25.5026 35.4061 24.8555 35.4061 23.9531V20.3574H37.491V28H35.8914ZM41.9635 28H39.8785V17.3633H41.9635V28ZM46.4428 28H44.3578V17.3633H46.4428V28ZM61.7041 28H59.0107L54.6631 20.4395H54.6016C54.6882 21.7747 54.7314 22.7272 54.7314 23.2969V28H52.8379V18.0059H55.5107L59.8516 25.4912H59.8994C59.8311 24.1924 59.7969 23.2741 59.7969 22.7363V18.0059H61.7041V28ZM69.116 28L68.7127 26.9609H68.658C68.3071 27.403 67.9448 27.7106 67.5711 27.8838C67.202 28.0524 66.7189 28.1367 66.1219 28.1367C65.3882 28.1367 64.8094 27.9271 64.3855 27.5078C63.9663 27.0885 63.7566 26.4915 63.7566 25.7168C63.7566 24.9056 64.0392 24.3086 64.6043 23.9258C65.174 23.5384 66.0307 23.3242 67.1746 23.2832L68.5008 23.2422V22.9072C68.5008 22.1325 68.1043 21.7451 67.3113 21.7451C66.7007 21.7451 65.9829 21.9297 65.158 22.2988L64.4676 20.8906C65.3471 20.4303 66.3224 20.2002 67.3934 20.2002C68.4188 20.2002 69.2049 20.4235 69.7518 20.8701C70.2986 21.3167 70.5721 21.9958 70.5721 22.9072V28H69.116ZM68.5008 24.459L67.6941 24.4863C67.088 24.5046 66.6368 24.6139 66.3406 24.8145C66.0444 25.015 65.8963 25.3203 65.8963 25.7305C65.8963 26.3184 66.2335 26.6123 66.908 26.6123C67.3911 26.6123 67.7762 26.4733 68.0633 26.1953C68.3549 25.9173 68.5008 25.5482 68.5008 25.0879V24.459ZM79.7682 28H77.6832V23.5361C77.6832 22.9847 77.5898 22.5723 77.4029 22.2988C77.2206 22.0208 76.9313 21.8818 76.5348 21.8818C76.0016 21.8818 75.6142 22.0778 75.3727 22.4697C75.1311 22.8617 75.0104 23.5065 75.0104 24.4043V28H72.9254V20.3574H74.5182L74.7984 21.335H74.9146C75.1197 20.984 75.416 20.7106 75.8033 20.5146C76.1907 20.3141 76.635 20.2139 77.1363 20.2139C78.2802 20.2139 79.0549 20.5876 79.4605 21.335H79.6451C79.8502 20.9795 80.151 20.7038 80.5475 20.5078C80.9485 20.3118 81.3997 20.2139 81.901 20.2139C82.7669 20.2139 83.4208 20.4372 83.8629 20.8838C84.3095 21.3258 84.5328 22.0368 84.5328 23.0166V28H82.441V23.5361C82.441 22.9847 82.3476 22.5723 82.1607 22.2988C81.9785 22.0208 81.6891 21.8818 81.2926 21.8818C80.7822 21.8818 80.3994 22.0641 80.1441 22.4287C79.8935 22.7933 79.7682 23.3721 79.7682 24.165V28ZM90.0443 21.6973C89.6023 21.6973 89.2559 21.8385 89.0053 22.1211C88.7546 22.3991 88.6111 22.7956 88.5746 23.3105H91.5004C91.4913 22.7956 91.3568 22.3991 91.0971 22.1211C90.8373 21.8385 90.4864 21.6973 90.0443 21.6973ZM90.3383 28.1367C89.1078 28.1367 88.1462 27.7972 87.4535 27.1182C86.7608 26.4391 86.4145 25.4775 86.4145 24.2334C86.4145 22.9528 86.7335 21.9639 87.3715 21.2666C88.0141 20.5648 88.9005 20.2139 90.0307 20.2139C91.1107 20.2139 91.9516 20.5215 92.5531 21.1367C93.1547 21.752 93.4555 22.6019 93.4555 23.6865V24.6982H88.5268C88.5495 25.2907 88.725 25.7533 89.0531 26.0859C89.3812 26.4186 89.8415 26.585 90.434 26.585C90.8943 26.585 91.3295 26.5371 91.7396 26.4414C92.1498 26.3457 92.5782 26.193 93.0248 25.9834V27.5967C92.6602 27.779 92.2706 27.9134 91.8559 28C91.4411 28.0911 90.9353 28.1367 90.3383 28.1367Z" fill="#BDBDBD"/>
<rect x="1" y="0.5" width="284" height="49" rx="4.5" stroke="#BDBDBD"/>
</g>
<defs>
<clipPath id="clip0_964_8276">
<rect width="285" height="50" fill="white" transform="translate(0.5)"/>
</clipPath>
</defs>
</svg>
