<svg width="48" height="48" viewBox="0 0 48 48" fill="none" xmlns="http://www.w3.org/2000/svg">
<g clip-path="url(#clip0_1082_264)">
<path d="M26.0339 39.5469H21.9666C21.7853 39.5469 21.6115 39.4747 21.4834 39.3462C21.3552 39.2177 21.2832 39.0434 21.2832 38.8617V5.76686C21.2832 5.04431 21.5695 4.35135 22.079 3.84043C22.5885 3.32951 23.2796 3.04248 24.0002 3.04248C24.7208 3.04248 25.4119 3.32951 25.9214 3.84043C26.431 4.35135 26.7172 5.04431 26.7172 5.76686V38.8624C26.717 39.044 26.645 39.2181 26.5168 39.3464C26.3887 39.4748 26.215 39.5469 26.0339 39.5469ZM22.6499 38.1765H25.3505V5.76686C25.3505 5.40777 25.2082 5.06338 24.955 4.80946C24.7018 4.55554 24.3583 4.41289 24.0002 4.41289C23.6421 4.41289 23.2986 4.55554 23.0454 4.80946C22.7922 5.06338 22.6499 5.40777 22.6499 5.76686V38.1765Z" fill="#D0A144"/>
<path d="M7.53131 12.2283H5.18537C4.62877 12.2183 4.09835 11.9895 3.70826 11.5913C3.31817 11.1931 3.09961 10.6572 3.09961 10.099C3.09961 9.54081 3.31817 9.00493 3.70826 8.6067C4.09835 8.20847 4.62877 7.97974 5.18537 7.96973H7.19852C7.37975 7.96973 7.55356 8.04192 7.68172 8.17042C7.80987 8.29892 7.88187 8.47321 7.88187 8.65493C7.88187 8.83666 7.80987 9.01095 7.68172 9.13945C7.55356 9.26795 7.37975 9.34014 7.19852 9.34014H5.18537C4.98858 9.34607 4.80184 9.42862 4.66474 9.57029C4.52764 9.71196 4.45096 9.9016 4.45096 10.099C4.45096 10.2964 4.52764 10.4861 4.66474 10.6277C4.80184 10.7694 4.98858 10.8519 5.18537 10.8579H7.53131C7.71254 10.8579 7.88636 10.9301 8.01451 11.0586C8.14266 11.1871 8.21466 11.3614 8.21466 11.5431C8.21466 11.7248 8.14266 11.8991 8.01451 12.0276C7.88636 12.1561 7.71254 12.2283 7.53131 12.2283Z" fill="#D0A144"/>
<path d="M21.9663 12.2283H11.6648C11.4836 12.2283 11.3097 12.1561 11.1816 12.0276C11.0534 11.8991 10.9814 11.7248 10.9814 11.5431C10.9814 11.3614 11.0534 11.1871 11.1816 11.0586C11.3097 10.9301 11.4836 10.8579 11.6648 10.8579H21.2829V9.34014H11.9969C11.8157 9.34014 11.6419 9.26795 11.5137 9.13945C11.3855 9.01095 11.3136 8.83666 11.3136 8.65493C11.3136 8.47321 11.3855 8.29892 11.5137 8.17042C11.6419 8.04192 11.8157 7.96973 11.9969 7.96973H21.9663C22.1475 7.96973 22.3213 8.04192 22.4495 8.17042C22.5777 8.29892 22.6496 8.47321 22.6496 8.65493V11.5431C22.6496 11.7248 22.5777 11.8991 22.4495 12.0276C22.3213 12.1561 22.1475 12.2283 21.9663 12.2283Z" fill="#D0A144"/>
<path d="M36.1865 12.2283H26.0339C25.8527 12.2283 25.6789 12.1561 25.5507 12.0276C25.4226 11.8991 25.3506 11.7248 25.3506 11.5431V8.65493C25.3506 8.47321 25.4226 8.29892 25.5507 8.17042C25.6789 8.04192 25.8527 7.96973 26.0339 7.96973H35.8544C36.0356 7.96973 36.2094 8.04192 36.3376 8.17042C36.4657 8.29892 36.5377 8.47321 36.5377 8.65493C36.5377 8.83666 36.4657 9.01095 36.3376 9.13945C36.2094 9.26795 36.0356 9.34014 35.8544 9.34014H26.7173V10.8579H36.1865C36.3677 10.8579 36.5415 10.9301 36.6697 11.0586C36.7978 11.1871 36.8698 11.3614 36.8698 11.5431C36.8698 11.7248 36.7978 11.8991 36.6697 12.0276C36.5415 12.1561 36.3677 12.2283 36.1865 12.2283Z" fill="#D0A144"/>
<path d="M42.8086 12.2283H40.4695C40.2882 12.2283 40.1144 12.1561 39.9863 12.0276C39.8581 11.8991 39.7861 11.7248 39.7861 11.5431C39.7861 11.3614 39.8581 11.1871 39.9863 11.0586C40.1144 10.9301 40.2882 10.8579 40.4695 10.8579H42.8086C43.0054 10.8519 43.1921 10.7694 43.3292 10.6277C43.4663 10.4861 43.543 10.2964 43.543 10.099C43.543 9.9016 43.4663 9.71196 43.3292 9.57029C43.1921 9.42862 43.0054 9.34607 42.8086 9.34014H40.8064C40.6251 9.34014 40.4513 9.26795 40.3232 9.13945C40.195 9.01095 40.123 8.83666 40.123 8.65493C40.123 8.47321 40.195 8.29892 40.3232 8.17042C40.4513 8.04192 40.6251 7.96973 40.8064 7.96973H42.8086C43.3652 7.97974 43.8956 8.20847 44.2857 8.6067C44.6758 9.00493 44.8944 9.54081 44.8944 10.099C44.8944 10.6572 44.6758 11.1931 44.2857 11.5913C43.8956 11.9895 43.3652 12.2183 42.8086 12.2283Z" fill="#D0A144"/>
<path d="M32.6553 43.9572H15.3461C15.2424 43.9571 15.14 43.9334 15.0468 43.8878C14.9536 43.8422 14.8719 43.7759 14.808 43.6939C14.7442 43.612 14.6997 43.5165 14.6781 43.4148C14.6565 43.3131 14.6582 43.2078 14.6832 43.1068C14.965 41.7517 15.6906 40.53 16.7446 39.636C17.7986 38.7421 19.1205 38.2272 20.4999 38.1733H27.5015C28.881 38.2272 30.2028 38.7421 31.2568 39.636C32.3108 40.53 33.0364 41.7517 33.3182 43.1068C33.3432 43.2078 33.3449 43.3131 33.3233 43.4148C33.3017 43.5165 33.2572 43.612 33.1934 43.6939C33.1295 43.7759 33.0479 43.8422 32.9546 43.8878C32.8614 43.9334 32.7591 43.9571 32.6553 43.9572ZM16.2912 42.5868H31.7103C31.385 41.721 30.8121 40.9707 30.0634 40.43C29.3147 39.8893 28.4235 39.5822 27.5015 39.5472H20.4999C19.5779 39.5822 18.6867 39.8893 17.938 40.43C17.1893 40.9707 16.6164 41.721 16.2912 42.5868Z" fill="#D0A144"/>
<path d="M34.5051 43.9568H13.4949C13.3136 43.9568 13.1398 43.8846 13.0117 43.7561C12.8835 43.6276 12.8115 43.4534 12.8115 43.2716C12.8115 43.0899 12.8835 42.9156 13.0117 42.7871C13.1398 42.6586 13.3136 42.5864 13.4949 42.5864H34.5051C34.6864 42.5864 34.8602 42.6586 34.9883 42.7871C35.1165 42.9156 35.1885 43.0899 35.1885 43.2716C35.1885 43.4534 35.1165 43.6276 34.9883 43.7561C34.8602 43.8846 34.6864 43.9568 34.5051 43.9568Z" fill="#D0A144"/>
<path d="M47.2339 29.4093H29.5754C29.4611 29.4094 29.3485 29.3807 29.248 29.3258C29.1476 29.2709 29.0625 29.1916 29.0005 29.0952C28.9385 28.9988 28.9017 28.8883 28.8934 28.7739C28.8851 28.6595 28.9056 28.5448 28.9529 28.4404L36.4561 11.8762C36.493 11.7941 36.5458 11.72 36.6113 11.6583C36.6769 11.5966 36.7539 11.5485 36.838 11.5167C36.9222 11.4849 37.0117 11.4701 37.1015 11.473C37.1914 11.476 37.2798 11.4967 37.3616 11.534C37.4435 11.5713 37.5172 11.6244 37.5785 11.6902C37.6399 11.7561 37.6877 11.8335 37.7192 11.9179C37.7506 12.0024 37.7652 12.0922 37.762 12.1823C37.7588 12.2724 37.7379 12.3609 37.7005 12.4429L30.636 28.0389H46.1706L39.1123 12.4429C39.0752 12.3609 39.0546 12.2724 39.0517 12.1825C39.0487 12.0925 39.0635 12.0029 39.0951 11.9186C39.1267 11.8344 39.1745 11.7572 39.2358 11.6915C39.2972 11.6258 39.3708 11.5729 39.4526 11.5357C39.5343 11.4985 39.6226 11.4779 39.7123 11.4749C39.802 11.4719 39.8914 11.4867 39.9754 11.5184C40.0595 11.5501 40.1364 11.5981 40.202 11.6596C40.2675 11.7211 40.3203 11.7949 40.3573 11.8769L47.853 28.4411C47.9001 28.5452 47.9205 28.6595 47.9122 28.7735C47.904 28.8876 47.8675 28.9977 47.8059 29.0939C47.7444 29.1902 47.6598 29.2695 47.5599 29.3245C47.46 29.3796 47.3479 29.4088 47.2339 29.4093Z" fill="#D0A144"/>
<path d="M38.475 38.1491H38.3329C32.8613 38.1491 28.8896 34.1859 28.8896 28.7248C28.8896 28.543 28.9616 28.3687 29.0898 28.2402C29.218 28.1117 29.3918 28.0396 29.573 28.0396H47.2342C47.4154 28.0396 47.5892 28.1117 47.7174 28.2402C47.8455 28.3687 47.9175 28.543 47.9175 28.7248C47.9175 34.1893 43.9459 38.1491 38.475 38.1491ZM30.2803 29.41C30.585 33.783 33.8098 36.7787 38.3329 36.7787H38.475C42.9974 36.7787 46.2228 33.783 46.5269 29.41H30.2803Z" fill="#D0A144"/>
<path d="M38.404 13.2057C37.7395 13.2058 37.0899 13.0084 36.5374 12.6383C35.9848 12.2682 35.5541 11.7421 35.2998 11.1266C35.0454 10.5111 34.9789 9.83372 35.1085 9.18024C35.2381 8.52675 35.558 7.92649 36.0279 7.45536C36.4977 6.98422 37.0964 6.66339 37.7481 6.53344C38.3998 6.40349 39.0753 6.47026 39.6892 6.72529C40.303 6.98033 40.8277 7.41218 41.1968 7.96623C41.5658 8.52028 41.7628 9.17163 41.7626 9.83791C41.7615 10.7308 41.4073 11.5868 40.7777 12.2181C40.1481 12.8494 39.2944 13.2046 38.404 13.2057ZM38.404 7.83985C38.0098 7.83972 37.6245 7.95678 37.2967 8.17625C36.969 8.39572 36.7134 8.70773 36.5625 9.07281C36.4116 9.4379 36.372 9.83967 36.4488 10.2273C36.5257 10.6149 36.7154 10.971 36.994 11.2505C37.2727 11.53 37.6277 11.7204 38.0143 11.7975C38.4008 11.8747 38.8015 11.8352 39.1657 11.6839C39.5298 11.5327 39.8411 11.2766 40.0601 10.948C40.279 10.6195 40.3959 10.2331 40.3959 9.83791C40.3954 9.30828 40.1854 8.80048 39.8119 8.42591C39.4385 8.05134 38.9322 7.84058 38.404 7.83985Z" fill="#D0A144"/>
<path d="M18.4239 29.4093H0.766169C0.651833 29.4093 0.539332 29.3805 0.438972 29.3255C0.338611 29.2706 0.2536 29.1913 0.191724 29.0949C0.129847 28.9985 0.0930847 28.8881 0.084803 28.7737C0.0765212 28.6594 0.096985 28.5448 0.14432 28.4404L7.64887 11.8762C7.72381 11.7107 7.86127 11.5818 8.03101 11.5178C8.20075 11.4539 8.38886 11.4602 8.55397 11.5354C8.71907 11.6105 8.84765 11.7483 8.9114 11.9185C8.97516 12.0887 8.96887 12.2774 8.89393 12.4429L1.82946 28.0389H17.3641L10.3057 12.4429C10.2665 12.3607 10.244 12.2714 10.2396 12.1804C10.2352 12.0893 10.2489 11.9983 10.2801 11.9126C10.3112 11.827 10.359 11.7484 10.4208 11.6815C10.4826 11.6146 10.5571 11.5608 10.6399 11.5231C10.7227 11.4855 10.8121 11.4647 10.903 11.4622C10.9939 11.4596 11.0844 11.4753 11.1691 11.5082C11.2539 11.5412 11.3313 11.5908 11.3967 11.6541C11.4621 11.7174 11.5143 11.7932 11.5501 11.8769L19.0465 28.4411C19.0937 28.5455 19.114 28.6601 19.1056 28.7744C19.0972 28.8887 19.0604 28.9991 18.9984 29.0954C18.9365 29.1917 18.8515 29.2709 18.7511 29.3258C18.6507 29.3806 18.5382 29.4093 18.4239 29.4093Z" fill="#D0A144"/>
<path d="M9.66768 38.1491H9.52554C4.05464 38.1491 0.0830078 34.1893 0.0830078 28.7248C0.0830078 28.543 0.155003 28.3687 0.283156 28.2402C0.411309 28.1117 0.585122 28.0396 0.766358 28.0396H18.4275C18.6088 28.0396 18.7826 28.1117 18.9107 28.2402C19.0389 28.3687 19.1109 28.543 19.1109 28.7248C19.1109 34.1893 15.1393 38.1491 9.66768 38.1491ZM1.47363 29.41C1.77772 33.783 5.00313 36.7787 9.52554 36.7787H9.66768C14.1908 36.7787 17.4155 33.783 17.7203 29.41H1.47363Z" fill="#D0A144"/>
<path d="M9.59665 13.2057C8.93221 13.2057 8.28269 13.0081 7.73023 12.638C7.17777 12.2678 6.7472 11.7417 6.49296 11.1261C6.23872 10.5106 6.17223 9.83326 6.30191 9.17982C6.43158 8.52638 6.7516 7.92618 7.22148 7.45511C7.69136 6.98405 8.29 6.66329 8.9417 6.53339C9.59339 6.4035 10.2689 6.4703 10.8827 6.72536C11.4965 6.98042 12.0211 7.41227 12.3902 7.9663C12.7592 8.52033 12.9561 9.17166 12.956 9.83791C12.9549 10.7309 12.6006 11.587 11.9708 12.2183C11.341 12.8497 10.4872 13.2048 9.59665 13.2057ZM9.59665 7.83985C9.20255 7.83985 8.81729 7.95703 8.4896 8.17658C8.16191 8.39613 7.90651 8.70819 7.75569 9.07329C7.60487 9.43839 7.56541 9.84013 7.64229 10.2277C7.71918 10.6153 7.90896 10.9713 8.18764 11.2508C8.46632 11.5302 8.82137 11.7205 9.20791 11.7976C9.59444 11.8747 9.9951 11.8351 10.3592 11.6839C10.7233 11.5327 11.0345 11.2766 11.2535 10.948C11.4724 10.6194 11.5893 10.2331 11.5893 9.83791C11.5888 9.30816 11.3786 8.80026 11.0051 8.42567C10.6315 8.05108 10.125 7.8404 9.59665 7.83985Z" fill="#D0A144"/>
</g>
<defs>
<clipPath id="clip0_1082_264">
<rect width="48" height="41" fill="white" transform="translate(0 3)"/>
</clipPath>
</defs>
</svg>
