<svg width="48" height="48" viewBox="0 0 48 48" fill="none" xmlns="http://www.w3.org/2000/svg">
<g clip-path="url(#clip0_1082_225)">
<path d="M10.387 42.4517H6.83858C6.65037 42.4517 6.46986 42.5264 6.33677 42.6595C6.20368 42.7926 6.12891 42.9731 6.12891 43.1613C6.12891 43.3496 6.20368 43.5301 6.33677 43.6632C6.46986 43.7962 6.65037 43.871 6.83858 43.871H10.387C10.5752 43.871 10.7557 43.7962 10.8888 43.6632C11.0219 43.5301 11.0966 43.3496 11.0966 43.1613C11.0966 42.9731 11.0219 42.7926 10.8888 42.6595C10.7557 42.5264 10.5752 42.4517 10.387 42.4517Z" fill="#D0A144"/>
<path d="M13.226 42.4517H12.5163C12.3281 42.4517 12.1476 42.5264 12.0145 42.6595C11.8814 42.7926 11.8066 42.9731 11.8066 43.1613C11.8066 43.3496 11.8814 43.5301 12.0145 43.6632C12.1476 43.7962 12.3281 43.871 12.5163 43.871H13.226C13.4142 43.871 13.5947 43.7962 13.7278 43.6632C13.8609 43.5301 13.9357 43.3496 13.9357 43.1613C13.9357 42.9731 13.8609 42.7926 13.7278 42.6595C13.5947 42.5264 13.4142 42.4517 13.226 42.4517Z" fill="#D0A144"/>
<path d="M8.25851 14.7742H30.9682C31.1564 14.7742 31.3369 14.6994 31.47 14.5663C31.6031 14.4332 31.6779 14.2527 31.6779 14.0645V11.2258C31.6779 11.0376 31.6031 10.8571 31.47 10.724C31.3369 10.5909 31.1564 10.5161 30.9682 10.5161H8.25851C8.07029 10.5161 7.88978 10.5909 7.75669 10.724C7.6236 10.8571 7.54883 11.0376 7.54883 11.2258V14.0645C7.54883 14.2527 7.6236 14.4332 7.75669 14.5663C7.88978 14.6994 8.07029 14.7742 8.25851 14.7742ZM8.96818 11.9355H30.2585V13.3548H8.96818V11.9355Z" fill="#D0A144"/>
<path d="M8.25851 20.4514H30.9682C31.1564 20.4514 31.3369 20.3767 31.47 20.2436C31.6031 20.1105 31.6779 19.93 31.6779 19.7417V16.903C31.6779 16.7148 31.6031 16.5343 31.47 16.4012C31.3369 16.2681 31.1564 16.1934 30.9682 16.1934H8.25851C8.07029 16.1934 7.88978 16.2681 7.75669 16.4012C7.6236 16.5343 7.54883 16.7148 7.54883 16.903V19.7417C7.54883 19.93 7.6236 20.1105 7.75669 20.2436C7.88978 20.3767 8.07029 20.4514 8.25851 20.4514ZM8.96818 17.6127H30.2585V19.0321H8.96818V17.6127Z" fill="#D0A144"/>
<path d="M8.25851 26.1292H30.9682C31.1564 26.1292 31.3369 26.0544 31.47 25.9213C31.6031 25.7882 31.6779 25.6077 31.6779 25.4195V22.5808C31.6779 22.3926 31.6031 22.212 31.47 22.079C31.3369 21.9459 31.1564 21.8711 30.9682 21.8711H8.25851C8.07029 21.8711 7.88978 21.9459 7.75669 22.079C7.6236 22.212 7.54883 22.3926 7.54883 22.5808V25.4195C7.54883 25.6077 7.6236 25.7882 7.75669 25.9213C7.88978 26.0544 8.07029 26.1292 8.25851 26.1292ZM8.96818 23.2904H30.2585V24.7098H8.96818V23.2904Z" fill="#D0A144"/>
<path d="M21.7424 27.5483H8.25851C8.07029 27.5483 7.88978 27.6231 7.75669 27.7562C7.6236 27.8893 7.54883 28.0698 7.54883 28.258C7.54883 28.4462 7.6236 28.6267 7.75669 28.7598C7.88978 28.8929 8.07029 28.9677 8.25851 28.9677H21.7424C21.9306 28.9677 22.1111 28.8929 22.2442 28.7598C22.3773 28.6267 22.4521 28.4462 22.4521 28.258C22.4521 28.0698 22.3773 27.8893 22.2442 27.7562C22.1111 27.6231 21.9306 27.5483 21.7424 27.5483Z" fill="#D0A144"/>
<path d="M17.4843 29.6772H8.25851C8.07029 29.6772 7.88978 29.752 7.75669 29.8851C7.6236 30.0182 7.54883 30.1987 7.54883 30.3869C7.54883 30.5751 7.6236 30.7557 7.75669 30.8887C7.88978 31.0218 8.07029 31.0966 8.25851 31.0966H17.4843C17.6725 31.0966 17.853 31.0218 17.9861 30.8887C18.1192 30.7557 18.194 30.5751 18.194 30.3869C18.194 30.1987 18.1192 30.0182 17.9861 29.8851C17.853 29.752 17.6725 29.6772 17.4843 29.6772Z" fill="#D0A144"/>
<path d="M9.67786 33.226C9.86608 33.226 10.0466 33.1512 10.1797 33.0181C10.3128 32.885 10.3875 32.7045 10.3875 32.5163C10.3875 32.3281 10.3128 32.1476 10.1797 32.0145C10.0466 31.8814 9.86608 31.8066 9.67786 31.8066H8.25851C8.07029 31.8066 7.88978 31.8814 7.75669 32.0145C7.6236 32.1476 7.54883 32.3281 7.54883 32.5163C7.54883 32.7045 7.6236 32.885 7.75669 33.0181C7.88978 33.1512 8.07029 33.226 8.25851 33.226H9.67786Z" fill="#D0A144"/>
<path d="M12.516 33.226C12.7043 33.226 12.8848 33.1512 13.0179 33.0181C13.1509 32.885 13.2257 32.7045 13.2257 32.5163C13.2257 32.3281 13.1509 32.1476 13.0179 32.0145C12.8848 31.8814 12.7043 31.8066 12.516 31.8066H11.8064C11.6181 31.8066 11.4376 31.8814 11.3045 32.0145C11.1714 32.1476 11.0967 32.3281 11.0967 32.5163C11.0967 32.7045 11.1714 32.885 11.3045 33.0181C11.4376 33.1512 11.6181 33.226 11.8064 33.226H12.516Z" fill="#D0A144"/>
<path d="M43.0323 35.3548C43.0296 33.2199 42.2262 31.1635 40.7808 29.5922C39.3354 28.0209 37.3531 27.049 35.2258 26.8685V8.3871C35.2258 8.2939 35.2075 8.20161 35.1718 8.11551C35.1361 8.0294 35.0839 7.95117 35.018 7.88527L29.3405 2.20785C29.2746 2.14195 29.1964 2.08967 29.1103 2.05401C29.0242 2.01835 28.9319 2 28.8387 2H4.70968C4.52146 2 4.34095 2.07477 4.20786 2.20786C4.07477 2.34095 4 2.52146 4 2.70968V45.2903C4 45.4785 4.07477 45.659 4.20786 45.7921C4.34095 45.9252 4.52146 46 4.70968 46H34.5161C34.7043 46 34.8849 45.9252 35.0179 45.7921C35.151 45.659 35.2258 45.4785 35.2258 45.2903V43.8412C37.3531 43.6607 39.3354 42.6887 40.7808 41.1174C42.2262 39.5461 43.0296 37.4898 43.0323 35.3548ZM29.5484 4.42293L32.8029 7.67742H29.5484V4.42293ZM5.41935 44.5806V3.41935H28.129V8.3871C28.129 8.57531 28.2038 8.75582 28.3369 8.88891C28.47 9.022 28.6505 9.09677 28.8387 9.09677H33.8065V26.8685C31.6785 27.047 29.6953 28.0184 28.2499 29.5902C26.8044 31.162 26.0022 33.2195 26.0022 35.3548C26.0022 37.4902 26.8044 39.5477 28.2499 41.1195C29.6953 42.6913 31.6785 43.6627 33.8065 43.8412V44.5806H5.41935ZM34.5161 42.4516C33.1125 42.4516 31.7404 42.0354 30.5734 41.2556C29.4063 40.4758 28.4967 39.3674 27.9596 38.0707C27.4224 36.7739 27.2819 35.347 27.5557 33.9703C27.8295 32.5937 28.5055 31.3292 29.498 30.3367C30.4905 29.3442 31.755 28.6683 33.1316 28.3944C34.5083 28.1206 35.9352 28.2611 37.2319 28.7983C38.5287 29.3354 39.6371 30.245 40.4169 31.4121C41.1967 32.5791 41.6129 33.9512 41.6129 35.3548C41.6108 37.2364 40.8624 39.0402 39.5319 40.3707C38.2015 41.7011 36.3977 42.4495 34.5161 42.4516Z" fill="#D0A144"/>
<path d="M39.9855 32.724C39.9196 32.6581 39.8413 32.6058 39.7552 32.5701C39.6691 32.5345 39.5768 32.5161 39.4836 32.5161C39.3904 32.5161 39.2981 32.5345 39.212 32.5701C39.1259 32.6058 39.0477 32.6581 38.9818 32.724L34.4059 37.2999L31.3326 35.456C31.2527 35.408 31.1641 35.3763 31.072 35.3626C30.9798 35.3489 30.8858 35.3534 30.7954 35.376C30.705 35.3986 30.6199 35.4388 30.545 35.4943C30.4701 35.5498 30.4069 35.6195 30.3589 35.6994C30.311 35.7793 30.2793 35.8679 30.2655 35.9601C30.2518 36.0523 30.2564 36.1462 30.279 36.2367C30.3016 36.3271 30.3418 36.4122 30.3973 36.487C30.4528 36.5619 30.5225 36.6251 30.6024 36.6731L34.1508 38.8021C34.2864 38.8836 34.4455 38.9174 34.6026 38.8981C34.7596 38.8788 34.9058 38.8075 35.0177 38.6957L39.9855 33.7279C40.0514 33.662 40.1037 33.5838 40.1394 33.4976C40.1751 33.4115 40.1935 33.3192 40.1935 33.226C40.1935 33.1327 40.1751 33.0404 40.1394 32.9543C40.1037 32.8681 40.0514 32.7899 39.9855 32.724Z" fill="#D0A144"/>
</g>
<defs>
<clipPath id="clip0_1082_225">
<rect width="39.0323" height="44" fill="white" transform="translate(4 2)"/>
</clipPath>
</defs>
</svg>
