<svg width="48" height="48" viewBox="0 0 48 48" fill="none" xmlns="http://www.w3.org/2000/svg">
<g clip-path="url(#clip0_1082_204)">
<path d="M17.4059 11.4317H30.4386C30.6897 11.4162 30.8898 11.216 30.9053 10.9649C30.9223 10.6901 30.7133 10.4538 30.4386 10.437H17.4059C17.3855 10.4357 17.3651 10.4357 17.3447 10.437C17.07 10.4539 16.8611 10.6902 16.8779 10.9649C16.8948 11.2396 17.1312 11.4486 17.4059 11.4317Z" fill="#D0A144"/>
<path d="M18.7167 29.8724V29.8687C17.581 29.8686 16.4921 30.3213 15.6913 31.1266C14.8887 31.9295 14.4381 33.0183 14.4385 34.1535C14.4392 36.5171 16.356 38.4325 18.7195 38.4317C21.0831 38.431 22.9985 36.5142 22.9978 34.1507C22.997 31.7871 21.0803 29.8717 18.7167 29.8724ZM21.0363 36.4755C19.7528 37.7576 17.6729 37.7565 16.3906 36.473C15.1085 35.1895 15.1097 33.1095 16.3932 31.8273C17.6768 30.5452 19.7566 30.5463 21.0388 31.8298V31.8261C21.6563 32.4424 22.0021 33.2797 21.9997 34.1521C21.9996 35.0237 21.6531 35.8595 21.0363 36.4755Z" fill="#D0A144"/>
<path d="M33.7797 16.896H14.0625C13.8114 16.9114 13.6112 17.1117 13.5957 17.3628C13.5788 17.6375 13.7878 17.8739 14.0625 17.8907H33.7797C34.0309 17.8753 34.231 17.675 34.2465 17.4239C34.2634 17.1493 34.0544 16.9129 33.7797 16.896Z" fill="#D0A144"/>
<path d="M38.6164 7.60906L38.6014 7.57145L38.592 7.55265V7.54325L38.5788 7.52632L33.1258 2.07333L33.0938 2.04513L33.0732 2.03385H33.06L33.0374 2.02444H33.0149C32.9772 2.01156 32.938 2.00338 32.8983 2H10.8438V2.00188C9.84181 2.00498 9.03045 2.81644 9.02734 3.81829V37.2244C9.03045 38.2263 9.84191 39.0378 10.8438 39.0409H14.7455C14.8692 39.2508 15.0304 39.4363 15.2212 39.588V45.4265C15.2022 45.5512 15.2333 45.6782 15.3077 45.78C15.308 45.7804 15.3082 45.7807 15.3085 45.781C15.4826 45.9929 15.7954 46.0236 16.0072 45.8496L18.6716 43.6627L21.2909 45.8364C21.3804 45.9149 21.4953 45.9583 21.6144 45.9586C21.6175 45.9586 21.6207 45.9585 21.6238 45.9585C21.8907 45.9523 22.1019 45.7309 22.0957 45.4641V39.6858C22.3326 39.5138 22.5338 39.2972 22.688 39.0484H36.8263C37.3084 39.0482 37.7705 38.856 38.1106 38.5144C38.4519 38.1748 38.6439 37.7134 38.6446 37.232V7.75197C38.6423 7.70317 38.6329 7.65503 38.6164 7.60906ZM33.3571 3.70923L37.1178 7.46991L34.1769 7.46803C33.9595 7.46794 33.7512 7.38135 33.5978 7.22735C33.4438 7.07391 33.3572 6.86557 33.3571 6.6482V3.70923ZM21.1255 44.4167L18.98 42.6398C18.7969 42.4896 18.5331 42.4896 18.3501 42.6398L16.1839 44.4149V40.0224C16.1839 40.0224 16.812 40.1032 17.1636 39.9152C17.5461 40.3738 18.112 40.6395 18.7092 40.641C19.3025 40.6247 19.862 40.3616 20.253 39.9152C20.4342 39.9822 20.6243 40.0227 20.8171 40.0356C20.9197 40.0444 21.0229 40.0444 21.1255 40.0356V44.4167ZM23.2672 35.8104C23.5252 36.1469 23.5606 36.604 23.3574 36.9762C23.1594 37.3186 22.781 37.515 22.3872 37.4802C22.1137 37.4574 21.8733 37.6599 21.8494 37.9333C21.8726 38.1545 21.8342 38.3777 21.7385 38.5783C21.5521 38.9365 21.171 39.15 20.7682 39.1217C20.6538 39.1133 20.5414 39.0866 20.4354 39.0427H20.4241H20.4109H20.3959H20.3602H20.3489H20.1251C20.0346 38.9857 19.9258 38.9648 19.8205 38.9844H19.7378L19.7077 39.0014L19.6908 39.0183L19.6757 39.0371L19.6607 39.0578H19.6494H19.6268C19.5259 39.2735 19.3524 39.447 19.1366 39.548C18.6278 39.7861 18.0222 39.5666 17.7841 39.0578C17.6677 38.8098 17.3729 38.7022 17.1241 38.8171C16.9173 38.9876 16.6517 39.0702 16.3846 39.0469C15.8218 38.9978 15.4053 38.5018 15.4544 37.939C15.4569 37.9088 15.4567 37.8784 15.4537 37.8483C15.4268 37.5745 15.1829 37.3743 14.9091 37.4012C14.6735 37.4202 14.4387 37.3565 14.2449 37.2212C13.7843 36.8996 13.6717 36.2654 13.9933 35.8048C14.009 35.7827 14.0228 35.7593 14.0347 35.7349C14.1546 35.4884 14.0519 35.1913 13.8053 35.0715C13.5905 34.9705 13.4176 34.7976 13.3166 34.5828C13.0771 34.0734 13.2959 33.4663 13.8053 33.2268C13.8341 33.2132 13.8615 33.1969 13.8872 33.178C14.1081 33.0158 14.1557 32.705 13.9933 32.4841C13.8608 32.29 13.7996 32.0559 13.8201 31.8217C13.869 31.262 14.3625 30.848 14.9222 30.8971C14.9524 30.8996 14.9828 30.8994 15.0128 30.8964C15.2867 30.8695 15.4869 30.6257 15.46 30.3518C15.4279 29.9576 15.6265 29.5803 15.9696 29.3834C16.3124 29.1865 16.7382 29.2054 17.062 29.4323C17.0841 29.448 17.1075 29.4618 17.1319 29.4737C17.3784 29.5935 17.6755 29.4909 17.7954 29.2443C17.9604 28.8845 18.3209 28.6549 18.7167 28.6576V28.6538C19.0881 28.7087 19.3978 28.9663 19.5197 29.3214C19.636 29.5694 19.9309 29.6769 20.1797 29.562C20.5154 29.3024 20.9731 29.2663 21.3455 29.4699C21.6878 29.6679 21.8843 30.0463 21.8494 30.4402C21.8266 30.7137 22.0292 30.9541 22.3026 30.9779C22.5237 30.9547 22.7469 30.9931 22.9475 31.0889C22.9866 31.1093 23.0244 31.1322 23.0606 31.1576C23.5208 31.4799 23.6327 32.1141 23.3104 32.5744C23.1541 32.7988 23.2088 33.1073 23.4326 33.2644C23.6363 33.3548 23.8107 33.5 23.9366 33.6838C23.9582 33.7183 23.9778 33.7541 23.9951 33.7909C24.236 34.3019 24.017 34.9114 23.506 35.1523C23.2589 35.2686 23.1522 35.5627 23.2672 35.8104ZM37.821 37.2376C37.8209 37.455 37.7343 37.6633 37.5803 37.8167C37.4271 37.9712 37.2187 38.0586 37.0012 38.0593H23.7241V38.0537C24.4907 37.536 24.805 36.562 24.4856 35.6938C24.5829 35.6134 24.6724 35.5239 24.7529 35.4266C25.4584 34.5734 25.3387 33.3099 24.4856 32.6044C24.5288 32.4874 24.561 32.3666 24.5818 32.2435C24.7667 31.1489 24.0291 30.1117 22.9344 29.9268C22.9136 29.8067 22.8819 29.6886 22.8398 29.5742C22.4559 28.5325 21.3003 27.9992 20.2586 28.3831C20.1789 28.2869 20.0904 28.1984 19.9942 28.1187C19.1411 27.4116 17.8763 27.53 17.1692 28.3831C16.6115 28.1781 15.9917 28.2311 15.4769 28.5279C14.9594 28.8246 14.6015 29.337 14.501 29.925C14.3805 29.9458 14.2621 29.9777 14.1474 30.0201C13.1062 30.4051 12.5741 31.5613 12.9591 32.6026C12.8618 32.683 12.7723 32.7725 12.6918 32.8699C11.9863 33.723 12.106 34.9865 12.9591 35.692C12.6376 36.5585 12.9479 37.5326 13.7113 38.0537H10.8438C10.3908 38.0516 10.0241 37.6849 10.022 37.232V3.81829C10.0241 3.36532 10.3908 2.99865 10.8438 2.99658H32.3549V6.65385C32.3555 7.13531 32.5476 7.59665 32.8889 7.93624C33.2283 8.2763 33.6889 8.46772 34.1694 8.46838H37.821V37.2376Z" fill="#D0A144"/>
<path d="M33.782 27.9526H23.7447C23.7243 27.9514 23.7039 27.9514 23.6835 27.9526C23.4088 27.9695 23.1999 28.2059 23.2168 28.4806C23.2337 28.7553 23.4701 28.9642 23.7448 28.9473H33.7821C34.0332 28.9319 34.2333 28.7316 34.2488 28.4806C34.2656 28.2059 34.0566 27.9695 33.782 27.9526Z" fill="#D0A144"/>
<path d="M34.247 26.2691C34.2639 25.9944 34.0549 25.7581 33.7803 25.7412H14.063C14.0426 25.7399 14.0222 25.7399 14.0018 25.7412C13.7271 25.7581 13.5182 25.9944 13.5351 26.2691C13.5521 26.5439 13.7884 26.7528 14.0631 26.7358H33.7804C34.0314 26.7205 34.2316 26.5203 34.247 26.2691Z" fill="#D0A144"/>
<path d="M17.4062 12.7065C17.1551 12.722 16.9549 12.9222 16.9394 13.1733C16.9225 13.4481 17.1315 13.6844 17.4062 13.7012H30.4389C30.69 13.6858 30.8902 13.4856 30.9057 13.2344C30.9226 12.9597 30.7136 12.7234 30.4389 12.7065H17.4062Z" fill="#D0A144"/>
<path d="M14.0631 24.5244H33.7804C34.0315 24.509 34.2317 24.3088 34.2472 24.0576C34.2641 23.7829 34.0551 23.5466 33.7804 23.5297H14.0631C14.0427 23.5285 14.0223 23.5285 14.0019 23.5297C13.7272 23.5466 13.5183 23.783 13.5351 24.0576C13.5521 24.3324 13.7884 24.5414 14.0631 24.5244Z" fill="#D0A144"/>
<path d="M14.0625 21.3184C13.8114 21.3338 13.6112 21.534 13.5957 21.7852C13.5788 22.0599 13.7878 22.2962 14.0625 22.3131H33.7797C34.0309 22.2976 34.231 22.0974 34.2465 21.8463C34.2635 21.5715 34.0545 21.3352 33.7797 21.3184H14.0625Z" fill="#D0A144"/>
<path d="M33.7804 19.1074H14.0631C14.0427 19.1061 14.0223 19.1061 14.0019 19.1074C13.7272 19.1243 13.5183 19.3606 13.5351 19.6353C13.5521 19.91 13.7884 20.1189 14.063 20.1021H33.7803C34.0314 20.0866 34.2316 19.8864 34.2471 19.6353C34.264 19.3606 34.055 19.1243 33.7804 19.1074Z" fill="#D0A144"/>
</g>
<defs>
<clipPath id="clip0_1082_204">
<rect width="29.7094" height="44" fill="white" transform="translate(9 2)"/>
</clipPath>
</defs>
</svg>
