<svg width="48" height="48" viewBox="0 0 48 48" fill="none" xmlns="http://www.w3.org/2000/svg">
<g clip-path="url(#clip0_1082_190)">
<g clip-path="url(#clip1_1082_190)">
<path d="M16.1095 3.55273H7.83283C7.43481 3.55273 7.1123 3.87534 7.1123 4.27326C7.1123 4.67118 7.43481 4.99378 7.83283 4.99378H16.1095C16.5076 4.99378 16.8301 4.67118 16.8301 4.27326C16.8301 3.87534 16.5075 3.55273 16.1095 3.55273Z" fill="#D0A144"/>
<path d="M16.1095 6.87793H7.83283C7.43481 6.87793 7.1123 7.20053 7.1123 7.59845C7.1123 7.99638 7.43481 8.31898 7.83283 8.31898H16.1095C16.5076 8.31898 16.8301 7.99638 16.8301 7.59845C16.8301 7.20053 16.5075 6.87793 16.1095 6.87793Z" fill="#D0A144"/>
<path d="M45.1466 42.4708L29.8769 28.3214C30.5733 27.5497 31.2306 26.7702 31.8424 25.9872C33.0228 26.8142 34.6631 26.7052 35.7207 25.6549C36.9106 24.4731 36.9172 22.5535 35.7353 21.3634L29.3766 14.9611C28.1976 13.7739 26.2723 13.7674 25.0851 14.9464C24.1541 15.8711 23.9494 17.2546 24.4731 18.3812C21.5608 20.6094 18.591 23.5325 16.2537 26.5443C15.1524 26.0209 13.7623 26.1921 12.8138 27.1342C11.624 28.3159 11.6171 30.2355 12.7992 31.4256L19.1579 37.8279C20.3385 39.0167 22.2592 39.0245 23.4493 37.8425C24.5064 36.7925 24.6266 35.1517 23.8081 33.9665C24.5971 33.3586 25.383 32.7051 26.1613 32.0121L40.2057 47.3779C41.1601 48.4219 42.791 48.4622 43.7954 47.4646L45.2087 46.0609C46.2115 45.065 46.1871 43.435 45.1466 42.4708ZM26.1006 15.9689C26.7256 15.3483 27.7364 15.3546 28.3543 15.9766L34.7129 22.379C35.3334 23.0038 35.3303 24.0118 34.7052 24.6324C34.0817 25.2517 33.0708 25.2481 32.4516 24.6247L26.093 18.2224C25.4738 17.599 25.4772 16.5881 26.1006 15.9689ZM25.3531 19.5224L30.7878 24.9944C28.5698 27.8534 25.7023 30.7028 22.8226 32.9053L17.388 27.4334C19.5491 24.6474 22.4046 21.7777 25.3531 19.5224ZM22.4339 36.8202C21.8096 37.4402 20.801 37.4375 20.1803 36.8125L13.8217 30.4102C13.2011 29.7854 13.2044 28.7773 13.8294 28.1567C14.4536 27.5367 15.4622 27.5395 16.0829 28.1644L22.4416 34.5667C23.0608 35.19 23.0573 36.2009 22.4339 36.8202ZM44.1932 45.0385L42.7799 46.4422C42.3455 46.8737 41.6606 46.8337 41.2694 46.4057L27.2221 31.0367C27.5049 30.769 27.7869 30.4979 28.0667 30.22C28.3483 29.9404 28.623 29.6585 28.8944 29.3757L44.1671 43.5278C44.6024 43.9312 44.6175 44.6171 44.1932 45.0385Z" fill="#D0A144"/>
<path d="M36.561 46.7131C36.4269 46.7352 36.2891 46.7465 36.1516 46.7465H5.98561C4.61373 46.7465 3.49769 45.6304 3.49769 44.2585V2.92897C3.49769 1.55719 4.61373 0.441048 5.98561 0.441048H29.4662C29.5633 0.441048 29.6588 0.450751 29.7525 0.466507V5.39902C29.7525 7.56549 31.5151 9.32799 33.6815 9.32799H38.614C38.6298 9.42185 38.6395 9.51725 38.6395 9.61428V34.7577C38.6395 35.1556 38.962 35.4782 39.36 35.4782C39.758 35.4782 40.0805 35.1556 40.0805 34.7577V9.61428C40.0805 8.77252 39.7527 7.98119 39.1577 7.38603L31.6945 -0.0769607C31.0994 -0.67221 30.3081 -1 29.4662 -1H5.98561C3.81923 -1 2.05664 0.762594 2.05664 2.92897V44.2584C2.05664 46.4249 3.81923 48.1875 5.98561 48.1875H36.1516C36.3675 48.1875 36.5843 48.1697 36.796 48.1347C37.1885 48.0699 37.4543 47.699 37.3893 47.3063C37.3245 46.9138 36.9534 46.6475 36.561 46.7131ZM37.6206 7.88694H33.6815C32.3096 7.88694 31.1936 6.7708 31.1936 5.39902V1.46006L37.6206 7.88694Z" fill="#D0A144"/>
</g>
</g>
<defs>
<clipPath id="clip0_1082_190">
<rect width="48" height="48" fill="white"/>
</clipPath>
<clipPath id="clip1_1082_190">
<rect width="44" height="49.1878" fill="white" transform="translate(2 -1)"/>
</clipPath>
</defs>
</svg>
