<svg width="24" height="24" viewBox="0 0 24 24" fill="none" xmlns="http://www.w3.org/2000/svg">
<path d="M22 5.01939C21.2277 5.35134 20.3873 5.59025 19.5217 5.68329C20.4204 5.15125 21.0934 4.31072 21.4145 3.31939C20.5711 3.8193 19.6473 4.16985 18.6838 4.35548C18.2811 3.92653 17.7941 3.5848 17.2531 3.3516C16.7121 3.11839 16.1287 2.99871 15.5392 3.00001C13.1543 3.00001 11.2363 4.92634 11.2363 7.29024C11.2363 7.6222 11.2767 7.95415 11.3423 8.27353C7.77118 8.08743 4.58623 6.38743 2.46881 3.78463C2.083 4.44128 1.88082 5.18895 1.88331 5.94986C1.88331 7.43862 2.64295 8.75134 3.80135 9.52338C3.11869 9.49659 2.45201 9.30962 1.85555 8.97767V9.03048C1.85555 11.1152 3.33446 12.8429 5.30549 13.2402C4.93541 13.336 4.5547 13.385 4.17234 13.3861C3.8922 13.3861 3.62721 13.3584 3.35969 13.3207C3.90482 15.0207 5.49225 16.2555 7.38253 16.2957C5.90362 17.45 4.0512 18.129 2.03978 18.129C1.67888 18.129 1.34575 18.1164 1 18.0762C2.90794 19.2959 5.17173 20 7.60966 20C15.5241 20 19.8548 13.4666 19.8548 7.79572C19.8548 7.60962 19.8548 7.42353 19.8422 7.23743C20.6801 6.62634 21.4145 5.86939 22 5.01939Z" fill="#295C7A"/>
</svg>
