<svg width="117" height="58" viewBox="0 0 117 58" fill="none" xmlns="http://www.w3.org/2000/svg">
<g clip-path="url(#clip0_964_7293)">
<path d="M0.5 0.5H112C114.485 0.5 116.5 2.51472 116.5 5V53C116.5 55.4853 114.485 57.5 112 57.5H0.5V0.5Z" fill="#D0A144"/>
<path d="M27.2646 34.084C29.7706 34.084 30.9186 32.852 30.9186 31.41C30.9186 27.84 24.8846 29.464 24.8846 26.776C24.8846 25.796 25.6826 24.998 27.4746 24.998C28.3426 24.998 29.3226 25.264 30.1626 25.81L30.5126 24.984C29.7286 24.438 28.5806 24.116 27.4746 24.116C24.9826 24.116 23.8626 25.362 23.8626 26.804C23.8626 30.43 29.8966 28.778 29.8966 31.466C29.8966 32.432 29.0986 33.202 27.2646 33.202C25.9766 33.202 24.7306 32.698 24.0306 32.012L23.6246 32.81C24.3526 33.566 25.7946 34.084 27.2646 34.084ZM38.8079 26.636V30.5C38.8079 32.18 37.8419 33.174 36.3019 33.174C34.9019 33.174 34.0899 32.376 34.0899 30.808V26.636H33.0959V30.906C33.0959 33.02 34.3279 34.07 36.2039 34.07C37.3799 34.07 38.3319 33.552 38.8499 32.656V34H39.8019V26.636H38.8079ZM46.5798 26.58C45.4038 26.58 44.3958 27.084 43.7798 28.036V23.612H42.7858V34H43.7378V32.544C44.3398 33.538 45.3618 34.07 46.5798 34.07C48.6798 34.07 50.2478 32.544 50.2478 30.318C50.2478 28.092 48.6798 26.58 46.5798 26.58ZM46.5098 33.188C44.9418 33.188 43.7658 32.04 43.7658 30.318C43.7658 28.596 44.9418 27.448 46.5098 27.448C48.0638 27.448 49.2538 28.596 49.2538 30.318C49.2538 32.04 48.0638 33.188 46.5098 33.188ZM54.4481 34.07C56.3661 34.07 57.4861 33.244 57.4861 31.97C57.4861 29.142 52.7121 30.64 52.7121 28.652C52.7121 27.952 53.3001 27.434 54.6301 27.434C55.3861 27.434 56.1561 27.616 56.8001 28.064L57.2341 27.266C56.6181 26.846 55.5821 26.58 54.6301 26.58C52.7541 26.58 51.7181 27.476 51.7181 28.68C51.7181 31.592 56.4921 30.08 56.4921 31.998C56.4921 32.726 55.9181 33.202 54.5181 33.202C53.4821 33.202 52.4881 32.838 51.9001 32.376L51.4521 33.16C52.0541 33.678 53.2301 34.07 54.4481 34.07ZM62.5757 34.07C63.8217 34.07 64.8717 33.566 65.4597 32.614L64.7177 32.11C64.2137 32.852 63.4297 33.188 62.5757 33.188C60.9657 33.188 59.7897 32.054 59.7897 30.318C59.7897 28.596 60.9657 27.448 62.5757 27.448C63.4297 27.448 64.2137 27.798 64.7177 28.54L65.4597 28.036C64.8717 27.07 63.8217 26.58 62.5757 26.58C60.3777 26.58 58.7817 28.12 58.7817 30.318C58.7817 32.516 60.3777 34.07 62.5757 34.07ZM68.5644 28.078V26.636H67.6124V34H68.6064V30.248C68.6064 28.512 69.5444 27.532 71.0844 27.532C71.1544 27.532 71.2384 27.546 71.3224 27.546V26.58C69.9644 26.58 69.0264 27.098 68.5644 28.078ZM73.8261 25.026C74.2461 25.026 74.5541 24.704 74.5541 24.298C74.5541 23.92 74.2321 23.612 73.8261 23.612C73.4201 23.612 73.0981 23.934 73.0981 24.312C73.0981 24.704 73.4201 25.026 73.8261 25.026ZM73.3221 34H74.3161V26.636H73.3221V34ZM81.0759 26.58C79.8999 26.58 78.8919 27.084 78.2759 28.036V23.612H77.2819V34H78.2339V32.544C78.8359 33.538 79.8579 34.07 81.0759 34.07C83.1759 34.07 84.7439 32.544 84.7439 30.318C84.7439 28.092 83.1759 26.58 81.0759 26.58ZM81.0059 33.188C79.4379 33.188 78.2619 32.04 78.2619 30.318C78.2619 28.596 79.4379 27.448 81.0059 27.448C82.5599 27.448 83.7499 28.596 83.7499 30.318C83.7499 32.04 82.5599 33.188 81.0059 33.188ZM93.3962 30.318C93.3962 28.106 91.8982 26.58 89.8262 26.58C87.7542 26.58 86.2282 28.134 86.2282 30.318C86.2282 32.502 87.7962 34.07 90.0922 34.07C91.2542 34.07 92.2762 33.65 92.9342 32.866L92.3742 32.222C91.8142 32.866 91.0162 33.188 90.1202 33.188C88.5102 33.188 87.3342 32.166 87.2222 30.626H93.3822C93.3822 30.514 93.3962 30.402 93.3962 30.318ZM89.8262 27.434C91.2682 27.434 92.3182 28.442 92.4442 29.884H87.2222C87.3482 28.442 88.3982 27.434 89.8262 27.434Z" fill="white"/>
<path d="M0.5 0.5H112C114.485 0.5 116.5 2.51472 116.5 5V53C116.5 55.4853 114.485 57.5 112 57.5H0.5V0.5Z" stroke="#E6E6E6"/>
</g>
<defs>
<clipPath id="clip0_964_7293">
<rect width="117" height="58" fill="white"/>
</clipPath>
</defs>
</svg>
