<svg width="286" height="50" viewBox="0 0 286 50" fill="none" xmlns="http://www.w3.org/2000/svg">
<rect x="1" y="0.5" width="284" height="49" rx="4.5" fill="#F9F9F9"/>
<path d="M21.877 22.709H22.5742C23.2259 22.709 23.7135 22.5814 24.0371 22.3262C24.3607 22.0664 24.5225 21.6904 24.5225 21.1982C24.5225 20.7015 24.3857 20.3346 24.1123 20.0977C23.8434 19.8607 23.4196 19.7422 22.8408 19.7422H21.877V22.709ZM26.6621 21.123C26.6621 22.1986 26.3249 23.0212 25.6504 23.5908C24.9805 24.1605 24.0257 24.4453 22.7861 24.4453H21.877V28H19.7578V18.0059H22.9502C24.1624 18.0059 25.083 18.2679 25.7119 18.792C26.3454 19.3115 26.6621 20.0885 26.6621 21.123ZM30.6697 28H28.5848V17.3633H30.6697V28ZM36.2291 21.6973C35.787 21.6973 35.4407 21.8385 35.19 22.1211C34.9394 22.3991 34.7958 22.7956 34.7594 23.3105H37.6852C37.676 22.7956 37.5416 22.3991 37.2818 22.1211C37.0221 21.8385 36.6712 21.6973 36.2291 21.6973ZM36.523 28.1367C35.2926 28.1367 34.331 27.7972 33.6383 27.1182C32.9456 26.4391 32.5992 25.4775 32.5992 24.2334C32.5992 22.9528 32.9182 21.9639 33.5562 21.2666C34.1988 20.5648 35.0852 20.2139 36.2154 20.2139C37.2955 20.2139 38.1363 20.5215 38.7379 21.1367C39.3395 21.752 39.6402 22.6019 39.6402 23.6865V24.6982H34.7115C34.7343 25.2907 34.9098 25.7533 35.2379 26.0859C35.566 26.4186 36.0263 26.585 36.6187 26.585C37.079 26.585 37.5143 26.5371 37.9244 26.4414C38.3346 26.3457 38.763 26.193 39.2096 25.9834V27.5967C38.845 27.779 38.4553 27.9134 38.0406 28C37.6259 28.0911 37.1201 28.1367 36.523 28.1367ZM46.3891 28L45.9857 26.9609H45.9311C45.5801 27.403 45.2178 27.7106 44.8441 27.8838C44.475 28.0524 43.9919 28.1367 43.3949 28.1367C42.6612 28.1367 42.0824 27.9271 41.6586 27.5078C41.2393 27.0885 41.0297 26.4915 41.0297 25.7168C41.0297 24.9056 41.3122 24.3086 41.8773 23.9258C42.447 23.5384 43.3038 23.3242 44.4477 23.2832L45.7738 23.2422V22.9072C45.7738 22.1325 45.3773 21.7451 44.5844 21.7451C43.9737 21.7451 43.2559 21.9297 42.4311 22.2988L41.7406 20.8906C42.6202 20.4303 43.5954 20.2002 44.6664 20.2002C45.6918 20.2002 46.4779 20.4235 47.0248 20.8701C47.5717 21.3167 47.8451 21.9958 47.8451 22.9072V28H46.3891ZM45.7738 24.459L44.9672 24.4863C44.3611 24.5046 43.9099 24.6139 43.6137 24.8145C43.3174 25.015 43.1693 25.3203 43.1693 25.7305C43.1693 26.3184 43.5066 26.6123 44.1811 26.6123C44.6641 26.6123 45.0492 26.4733 45.3363 26.1953C45.628 25.9173 45.7738 25.5482 45.7738 25.0879V24.459ZM55.5305 25.7305C55.5305 26.5143 55.257 27.1113 54.7102 27.5215C54.1678 27.9316 53.3544 28.1367 52.2697 28.1367C51.7137 28.1367 51.2398 28.098 50.8479 28.0205C50.4559 27.9476 50.0891 27.8382 49.7473 27.6924V25.9697C50.1346 26.152 50.5699 26.3047 51.0529 26.4277C51.5406 26.5508 51.9689 26.6123 52.3381 26.6123C53.0946 26.6123 53.4729 26.3936 53.4729 25.9561C53.4729 25.792 53.4227 25.6598 53.3225 25.5596C53.2222 25.4548 53.049 25.3385 52.8029 25.2109C52.5568 25.0788 52.2287 24.9261 51.8186 24.7529C51.2307 24.5068 50.7977 24.279 50.5197 24.0693C50.2463 23.8597 50.0458 23.6204 49.9182 23.3516C49.7951 23.0781 49.7336 22.7432 49.7336 22.3467C49.7336 21.6676 49.9956 21.1436 50.5197 20.7744C51.0484 20.4007 51.7958 20.2139 52.7619 20.2139C53.6825 20.2139 54.578 20.4144 55.4484 20.8154L54.8195 22.3193C54.4367 22.1553 54.079 22.0208 53.7463 21.916C53.4136 21.8112 53.0741 21.7588 52.7277 21.7588C52.1125 21.7588 51.8049 21.9251 51.8049 22.2578C51.8049 22.4447 51.9029 22.6064 52.0988 22.7432C52.2993 22.8799 52.7346 23.0827 53.4045 23.3516C54.0015 23.5931 54.439 23.8187 54.717 24.0283C54.995 24.238 55.2001 24.4795 55.3322 24.7529C55.4644 25.0264 55.5305 25.3522 55.5305 25.7305ZM60.5225 21.6973C60.0804 21.6973 59.734 21.8385 59.4834 22.1211C59.2327 22.3991 59.0892 22.7956 59.0527 23.3105H61.9785C61.9694 22.7956 61.835 22.3991 61.5752 22.1211C61.3154 21.8385 60.9645 21.6973 60.5225 21.6973ZM60.8164 28.1367C59.5859 28.1367 58.6243 27.7972 57.9316 27.1182C57.2389 26.4391 56.8926 25.4775 56.8926 24.2334C56.8926 22.9528 57.2116 21.9639 57.8496 21.2666C58.4922 20.5648 59.3786 20.2139 60.5088 20.2139C61.5889 20.2139 62.4297 20.5215 63.0312 21.1367C63.6328 21.752 63.9336 22.6019 63.9336 23.6865V24.6982H59.0049C59.0277 25.2907 59.2031 25.7533 59.5312 26.0859C59.8594 26.4186 60.3197 26.585 60.9121 26.585C61.3724 26.585 61.8076 26.5371 62.2178 26.4414C62.6279 26.3457 63.0563 26.193 63.5029 25.9834V27.5967C63.1383 27.779 62.7487 27.9134 62.334 28C61.9193 28.0911 61.4134 28.1367 60.8164 28.1367ZM75.7291 25.2246C75.7291 26.127 75.4033 26.8379 74.7516 27.3574C74.1044 27.877 73.2021 28.1367 72.0445 28.1367C70.9781 28.1367 70.0348 27.9362 69.2145 27.5352V25.5664C69.8889 25.8672 70.4586 26.0791 70.9234 26.2021C71.3928 26.3252 71.8212 26.3867 72.2086 26.3867C72.6734 26.3867 73.0289 26.2979 73.275 26.1201C73.5257 25.9424 73.651 25.6781 73.651 25.3271C73.651 25.1312 73.5963 24.958 73.4869 24.8076C73.3775 24.6527 73.2158 24.5046 73.0016 24.3633C72.7919 24.222 72.3613 23.9964 71.7096 23.6865C71.0989 23.3994 70.6409 23.1237 70.3355 22.8594C70.0302 22.5951 69.7864 22.2874 69.6041 21.9365C69.4218 21.5856 69.3307 21.1755 69.3307 20.7061C69.3307 19.8219 69.6292 19.127 70.2262 18.6211C70.8277 18.1152 71.6572 17.8623 72.7145 17.8623C73.234 17.8623 73.7285 17.9238 74.1979 18.0469C74.6718 18.1699 75.1663 18.3431 75.6813 18.5664L74.9977 20.2139C74.4645 19.9951 74.0224 19.8424 73.6715 19.7559C73.3251 19.6693 72.9833 19.626 72.6461 19.626C72.2451 19.626 71.9374 19.7194 71.7232 19.9062C71.5091 20.0931 71.402 20.3369 71.402 20.6377C71.402 20.8245 71.4452 20.9886 71.5318 21.1299C71.6184 21.2666 71.7551 21.401 71.942 21.5332C72.1334 21.6608 72.5823 21.8932 73.2887 22.2305C74.2229 22.6771 74.8632 23.126 75.2096 23.5771C75.5559 24.0238 75.7291 24.5729 75.7291 25.2246ZM80.7416 21.6973C80.2995 21.6973 79.9532 21.8385 79.7025 22.1211C79.4519 22.3991 79.3083 22.7956 79.2719 23.3105H82.1977C82.1885 22.7956 82.0541 22.3991 81.7943 22.1211C81.5346 21.8385 81.1837 21.6973 80.7416 21.6973ZM81.0355 28.1367C79.8051 28.1367 78.8435 27.7972 78.1508 27.1182C77.4581 26.4391 77.1117 25.4775 77.1117 24.2334C77.1117 22.9528 77.4307 21.9639 78.0687 21.2666C78.7113 20.5648 79.5977 20.2139 80.7279 20.2139C81.808 20.2139 82.6488 20.5215 83.2504 21.1367C83.852 21.752 84.1527 22.6019 84.1527 23.6865V24.6982H79.224C79.2468 25.2907 79.4223 25.7533 79.7504 26.0859C80.0785 26.4186 80.5388 26.585 81.1312 26.585C81.5915 26.585 82.0268 26.5371 82.4369 26.4414C82.8471 26.3457 83.2755 26.193 83.7221 25.9834V27.5967C83.3575 27.779 82.9678 27.9134 82.5531 28C82.1384 28.0911 81.6326 28.1367 81.0355 28.1367ZM88.133 28H86.048V17.3633H88.133V28ZM93.6924 21.6973C93.2503 21.6973 92.904 21.8385 92.6533 22.1211C92.4027 22.3991 92.2591 22.7956 92.2227 23.3105H95.1484C95.1393 22.7956 95.0049 22.3991 94.7451 22.1211C94.4854 21.8385 94.1344 21.6973 93.6924 21.6973ZM93.9863 28.1367C92.7559 28.1367 91.7943 27.7972 91.1016 27.1182C90.4089 26.4391 90.0625 25.4775 90.0625 24.2334C90.0625 22.9528 90.3815 21.9639 91.0195 21.2666C91.6621 20.5648 92.5485 20.2139 93.6787 20.2139C94.7588 20.2139 95.5996 20.5215 96.2012 21.1367C96.8027 21.752 97.1035 22.6019 97.1035 23.6865V24.6982H92.1748C92.1976 25.2907 92.373 25.7533 92.7012 26.0859C93.0293 26.4186 93.4896 26.585 94.082 26.585C94.5423 26.585 94.9775 26.5371 95.3877 26.4414C95.7979 26.3457 96.2262 26.193 96.6729 25.9834V27.5967C96.3083 27.779 95.9186 27.9134 95.5039 28C95.0892 28.0911 94.5833 28.1367 93.9863 28.1367ZM102.102 28.1367C99.7234 28.1367 98.534 26.8311 98.534 24.2197C98.534 22.9209 98.8575 21.9297 99.5047 21.2461C100.152 20.5579 101.079 20.2139 102.287 20.2139C103.171 20.2139 103.964 20.387 104.666 20.7334L104.051 22.3467C103.722 22.2145 103.417 22.1074 103.135 22.0254C102.852 21.9388 102.569 21.8955 102.287 21.8955C101.202 21.8955 100.66 22.6657 100.66 24.2061C100.66 25.7008 101.202 26.4482 102.287 26.4482C102.688 26.4482 103.059 26.3958 103.401 26.291C103.743 26.1816 104.085 26.013 104.427 25.7852V27.5693C104.089 27.7835 103.748 27.9316 103.401 28.0137C103.059 28.0957 102.626 28.1367 102.102 28.1367ZM109.624 26.4756C109.988 26.4756 110.426 26.3958 110.936 26.2363V27.7881C110.417 28.0205 109.779 28.1367 109.022 28.1367C108.188 28.1367 107.58 27.9271 107.197 27.5078C106.819 27.084 106.629 26.4505 106.629 25.6074V21.9229H105.631V21.041L106.78 20.3438L107.381 18.7305H108.714V20.3574H110.854V21.9229H108.714V25.6074C108.714 25.9036 108.796 26.1224 108.961 26.2637C109.129 26.4049 109.35 26.4756 109.624 26.4756Z" fill="#BDBDBD"/>
<path d="M253.5 20.9995L258.5 25.9995L263.5 20.9995L265.5 21.9995L258.5 28.9995L251.5 21.9995L253.5 20.9995Z" fill="#737373"/>
<rect x="1" y="0.5" width="284" height="49" rx="4.5" stroke="#BDBDBD"/>
</svg>
