<svg width="292" height="50" viewBox="0 0 292 50" fill="none" xmlns="http://www.w3.org/2000/svg">
<rect x="1" y="0.5" width="290" height="49" rx="4.5" fill="#F9F9F9"/>
<path d="M26.2725 25.9287H25.0693V28H23.0049V25.9287H18.7393V24.459L23.1211 18.0059H25.0693V24.2881H26.2725V25.9287ZM23.0049 24.2881V22.5928C23.0049 22.3102 23.0163 21.9001 23.0391 21.3623C23.0618 20.8245 23.0801 20.5124 23.0938 20.4258H23.0391C22.8704 20.7995 22.6676 21.1641 22.4307 21.5195L20.5986 24.2881H23.0049ZM27.4979 27.0225C27.4979 26.6396 27.6004 26.3503 27.8055 26.1543C28.0105 25.9583 28.309 25.8604 28.701 25.8604C29.0792 25.8604 29.3709 25.9606 29.576 26.1611C29.7856 26.3617 29.8904 26.6488 29.8904 27.0225C29.8904 27.3825 29.7856 27.6673 29.576 27.877C29.3663 28.082 29.0747 28.1846 28.701 28.1846C28.3182 28.1846 28.0219 28.0843 27.8123 27.8838C27.6027 27.6787 27.4979 27.3916 27.4979 27.0225ZM27.4979 21.376C27.4979 20.9932 27.6004 20.7038 27.8055 20.5078C28.0105 20.3118 28.309 20.2139 28.701 20.2139C29.0792 20.2139 29.3709 20.3141 29.576 20.5146C29.7856 20.7152 29.8904 21.0023 29.8904 21.376C29.8904 21.7451 29.7833 22.0322 29.5691 22.2373C29.3595 22.4378 29.0701 22.5381 28.701 22.5381C28.3182 22.5381 28.0219 22.4378 27.8123 22.2373C27.6027 22.0368 27.4979 21.7497 27.4979 21.376ZM38.3824 23.0029C38.3824 24.7484 38.0953 26.0404 37.5211 26.8789C36.9514 27.7174 36.0719 28.1367 34.8824 28.1367C33.7294 28.1367 32.859 27.7038 32.2711 26.8379C31.6878 25.972 31.3961 24.6937 31.3961 23.0029C31.3961 21.2393 31.6809 19.9404 32.2506 19.1064C32.8202 18.2679 33.6975 17.8486 34.8824 17.8486C36.0354 17.8486 36.9059 18.2861 37.4937 19.1611C38.0862 20.0361 38.3824 21.3167 38.3824 23.0029ZM33.4947 23.0029C33.4947 24.2288 33.5995 25.1084 33.8092 25.6416C34.0234 26.1702 34.3811 26.4346 34.8824 26.4346C35.3746 26.4346 35.7301 26.1657 35.9488 25.6279C36.1676 25.0902 36.277 24.2152 36.277 23.0029C36.277 21.777 36.1653 20.8975 35.942 20.3643C35.7232 19.8265 35.3701 19.5576 34.8824 19.5576C34.3857 19.5576 34.0302 19.8265 33.816 20.3643C33.6018 20.8975 33.4947 21.777 33.4947 23.0029ZM46.5805 23.0029C46.5805 24.7484 46.2934 26.0404 45.7191 26.8789C45.1495 27.7174 44.2699 28.1367 43.0805 28.1367C41.9275 28.1367 41.057 27.7038 40.4691 26.8379C39.8858 25.972 39.5941 24.6937 39.5941 23.0029C39.5941 21.2393 39.879 19.9404 40.4486 19.1064C41.0183 18.2679 41.8956 17.8486 43.0805 17.8486C44.2335 17.8486 45.1039 18.2861 45.6918 19.1611C46.2842 20.0361 46.5805 21.3167 46.5805 23.0029ZM41.6928 23.0029C41.6928 24.2288 41.7976 25.1084 42.0072 25.6416C42.2214 26.1702 42.5792 26.4346 43.0805 26.4346C43.5727 26.4346 43.9281 26.1657 44.1469 25.6279C44.3656 25.0902 44.475 24.2152 44.475 23.0029C44.475 21.777 44.3633 20.8975 44.14 20.3643C43.9213 19.8265 43.5681 19.5576 43.0805 19.5576C42.5837 19.5576 42.2283 19.8265 42.0141 20.3643C41.7999 20.8975 41.6928 21.777 41.6928 23.0029ZM58.499 28L57.7744 25.6211H54.1309L53.4062 28H51.123L54.6504 17.9648H57.2412L60.7822 28H58.499ZM57.2686 23.8438C56.5986 21.6882 56.2204 20.4691 56.1338 20.1865C56.0518 19.904 55.9925 19.6807 55.9561 19.5166C55.8057 20.0999 55.375 21.5423 54.6641 23.8438H57.2686ZM63.9012 28L60.9891 20.3574H63.1697L64.6463 24.7119C64.8104 25.2633 64.9129 25.7852 64.9539 26.2773H64.9949C65.0177 25.8398 65.1202 25.318 65.3025 24.7119L66.7723 20.3574H68.9529L66.0408 28H63.9012ZM75.107 28L74.7037 26.9609H74.649C74.2981 27.403 73.9358 27.7106 73.5621 27.8838C73.193 28.0524 72.7099 28.1367 72.1129 28.1367C71.3792 28.1367 70.8004 27.9271 70.3766 27.5078C69.9573 27.0885 69.7477 26.4915 69.7477 25.7168C69.7477 24.9056 70.0302 24.3086 70.5953 23.9258C71.165 23.5384 72.0217 23.3242 73.1656 23.2832L74.4918 23.2422V22.9072C74.4918 22.1325 74.0953 21.7451 73.3023 21.7451C72.6917 21.7451 71.9739 21.9297 71.149 22.2988L70.4586 20.8906C71.3382 20.4303 72.3134 20.2002 73.3844 20.2002C74.4098 20.2002 75.1959 20.4235 75.7428 20.8701C76.2896 21.3167 76.5631 21.9958 76.5631 22.9072V28H75.107ZM74.4918 24.459L73.6852 24.4863C73.079 24.5046 72.6279 24.6139 72.3316 24.8145C72.0354 25.015 71.8873 25.3203 71.8873 25.7305C71.8873 26.3184 72.2245 26.6123 72.899 26.6123C73.3821 26.6123 73.7672 26.4733 74.0543 26.1953C74.346 25.9173 74.4918 25.5482 74.4918 25.0879V24.459ZM78.8275 18.3818C78.8275 17.7028 79.2058 17.3633 79.9623 17.3633C80.7188 17.3633 81.0971 17.7028 81.0971 18.3818C81.0971 18.7054 81.0014 18.9583 80.81 19.1406C80.6231 19.3184 80.3406 19.4072 79.9623 19.4072C79.2058 19.4072 78.8275 19.0654 78.8275 18.3818ZM81.0014 28H78.9164V20.3574H81.0014V28ZM85.4807 28H83.3957V17.3633H85.4807V28ZM92.7285 28L92.3252 26.9609H92.2705C91.9196 27.403 91.5573 27.7106 91.1836 27.8838C90.8145 28.0524 90.3314 28.1367 89.7344 28.1367C89.0007 28.1367 88.4219 27.9271 87.998 27.5078C87.5788 27.0885 87.3691 26.4915 87.3691 25.7168C87.3691 24.9056 87.6517 24.3086 88.2168 23.9258C88.7865 23.5384 89.6432 23.3242 90.7871 23.2832L92.1133 23.2422V22.9072C92.1133 22.1325 91.7168 21.7451 90.9238 21.7451C90.3132 21.7451 89.5954 21.9297 88.7705 22.2988L88.0801 20.8906C88.9596 20.4303 89.9349 20.2002 91.0059 20.2002C92.0312 20.2002 92.8174 20.4235 93.3643 20.8701C93.9111 21.3167 94.1846 21.9958 94.1846 22.9072V28H92.7285ZM92.1133 24.459L91.3066 24.4863C90.7005 24.5046 90.2493 24.6139 89.9531 24.8145C89.6569 25.015 89.5088 25.3203 89.5088 25.7305C89.5088 26.3184 89.846 26.6123 90.5205 26.6123C91.0036 26.6123 91.3887 26.4733 91.6758 26.1953C91.9674 25.9173 92.1133 25.5482 92.1133 25.0879V24.459ZM100.79 20.2139C101.692 20.2139 102.399 20.5671 102.909 21.2734C103.419 21.9753 103.675 22.9391 103.675 24.165C103.675 25.4274 103.41 26.4049 102.882 27.0977C102.358 27.7904 101.642 28.1367 100.735 28.1367C99.8374 28.1367 99.1333 27.8109 98.6228 27.1592H98.4793L98.1307 28H96.5379V17.3633H98.6228V19.8379C98.6228 20.1523 98.5955 20.6559 98.5408 21.3486H98.6228C99.1105 20.5921 99.8328 20.2139 100.79 20.2139ZM100.12 21.8818C99.6049 21.8818 99.229 22.0413 98.992 22.3604C98.755 22.6748 98.632 23.1966 98.6228 23.9258V24.1514C98.6228 24.9717 98.7436 25.5596 98.9852 25.915C99.2312 26.2705 99.6186 26.4482 100.147 26.4482C100.576 26.4482 100.915 26.2523 101.166 25.8604C101.421 25.4639 101.549 24.8896 101.549 24.1377C101.549 23.3857 101.421 22.8229 101.166 22.4492C100.911 22.071 100.562 21.8818 100.12 21.8818ZM107.682 28H105.597V17.3633H107.682V28ZM113.242 21.6973C112.8 21.6973 112.453 21.8385 112.203 22.1211C111.952 22.3991 111.808 22.7956 111.772 23.3105H114.698C114.689 22.7956 114.554 22.3991 114.294 22.1211C114.035 21.8385 113.684 21.6973 113.242 21.6973ZM113.536 28.1367C112.305 28.1367 111.343 27.7972 110.651 27.1182C109.958 26.4391 109.612 25.4775 109.612 24.2334C109.612 22.9528 109.931 21.9639 110.569 21.2666C111.211 20.5648 112.098 20.2139 113.228 20.2139C114.308 20.2139 115.149 20.5215 115.75 21.1367C116.352 21.752 116.653 22.6019 116.653 23.6865V24.6982H111.724C111.747 25.2907 111.922 25.7533 112.25 26.0859C112.579 26.4186 113.039 26.585 113.631 26.585C114.092 26.585 114.527 26.5371 114.937 26.4414C115.347 26.3457 115.775 26.193 116.222 25.9834V27.5967C115.857 27.779 115.468 27.9134 115.053 28C114.638 28.0911 114.133 28.1367 113.536 28.1367Z" fill="#BDBDBD"/>
<path d="M259.5 20.9995L264.5 25.9995L269.5 20.9995L271.5 21.9995L264.5 28.9995L257.5 21.9995L259.5 20.9995Z" fill="#737373"/>
<rect x="1" y="0.5" width="290" height="49" rx="4.5" stroke="#BDBDBD"/>
</svg>
